<svg viewBox="0 0 16 16" xmlns="http://www.w3.org/2000/svg" fill-rule="evenodd" clip-rule="evenodd" stroke-linejoin="round" stroke-miterlimit="1.414"><path d="M15.222 11.355a9.478 9.478 0 0 0-.235-.577c-.123-.277-.252-.556-.376-.825v-.02c-1.11-2.404-2.29-4.84-3.53-7.24l-.05-.1c-.12-.246-.25-.5-.39-.75-.15-.29-.33-.598-.57-.885C9.53.34 8.8 0 8 0S6.476.34 5.948.96a4.815 4.815 0 0 0-.574.884c-.135.252-.267.508-.394.755l-.05.09A190.23 190.23 0 0 0 1.4 9.93l-.018.035c-.12.265-.248.538-.368.81-.08.182-.163.376-.235.578-.21.59-.28 1.154-.19 1.725.17 1.19.97 2.213 2.08 2.666a3.434 3.434 0 0 0 1.73.227c.54-.06 1.08-.24 1.61-.54.65-.36 1.29-.9 1.99-1.66.7.77 1.34 1.3 1.99 1.67.53.3 1.07.48 1.6.55a3.467 3.467 0 0 0 1.73-.22 3.401 3.401 0 0 0 2.08-2.66c.08-.57.02-1.13-.19-1.72zm-.822 1.58a2.38 2.38 0 0 1-1.46 1.864c-.38.15-.8.21-1.225.16a3.373 3.373 0 0 1-1.225-.42c-.577-.33-1.162-.83-1.82-1.56 1.048-1.3 1.702-2.49 1.944-3.55.11-.49.134-.95.07-1.37a2.625 2.625 0 0 0-.426-1.1c-.49-.7-1.333-1.12-2.258-1.12-.924 0-1.768.42-2.258 1.14-.22.32-.363.68-.425 1.09-.064.42-.04.88.07 1.36.24 1.06.895 2.25 1.942 3.55-.66.73-1.25 1.23-1.82 1.55-.42.24-.82.38-1.23.42-.43.05-.85 0-1.23-.16a2.376 2.376 0 0 1-1.46-1.86c-.06-.41-.02-.8.14-1.24.05-.16.12-.32.2-.5.11-.26.24-.53.36-.79l.01-.03c1.1-2.39 2.28-4.81 3.51-7.2l.05-.1c.12-.25.25-.5.38-.74.13-.25.27-.5.45-.71.34-.39.78-.6 1.27-.6.5 0 .94.21 1.27.6.18.21.31.45.45.71.13.24.26.49.38.73l.05.1c1.23 2.39 2.41 4.81 3.51 7.2l.01.02c.12.26.25.54.37.81.08.18.15.34.21.5.15.44.2.83.14 1.24zM8 12.19c-.866-1.102-1.422-2.123-1.617-2.98a2.65 2.65 0 0 1-.056-.98c.04-.254.126-.48.258-.673.3-.435.828-.696 1.415-.696.587 0 1.116.27 1.415.7.133.2.22.42.258.67.045.29.026.63-.056.98-.195.86-.75 1.88-1.617 2.98z"/></svg>