<svg xmlns="http://www.w3.org/2000/svg" viewBox="0 0 16 16"><path d="M10.977 6.636c.49-1.333.874-2.434 1.148-3.303.273-.867.412-1.4.412-1.6 0-.21-.047-.376-.14-.492a.453.453 0 0 0-.378-.176c-.206 0-.415.17-.626.51-.213.34-.447.89-.705 1.645L9.592 6.393l1.386.242h-.003zM9.515 9.593a7.194 7.194 0 0 1-.896-.1 4.783 4.783 0 0 1-.81-.22c.118.235.223.47.314.703.092.235.167.465.226.692a4.893 4.893 0 0 1 1.164-1.075zm-1.242-3.33l-1.187-3.43c-.308-.87-.546-1.44-.716-1.71-.167-.266-.35-.398-.548-.398A.458.458 0 0 0 5.449.9a.73.73 0 0 0-.143.472c0 .338.13.924.385 1.76.256.835.64 1.93 1.153 3.285.044-.08.106-.137.187-.17s.19-.05.33-.05c.043 0 .13.005.264.01.13.01.347.025.647.056zM7.195 11.57c.125 0 .24-.056.34-.17a.557.557 0 0 0 .156-.368c0-.14-.1-.464-.302-.972a9.742 9.742 0 0 0-.753-1.5c-.22-.366-.437-.644-.647-.83-.215-.186-.416-.28-.605-.28-.154 0-.324.098-.512.293-.187.193-.28.375-.28.543 0 .176.093.44.275.79.184.354.43.727.736 1.122.324.432.628.77.914 1.01.285.242.513.363.68.363zm-3.297-.262c.104.125.246.307.43.55.482.665.93 1 1.34 1a.59.59 0 0 0 .375-.132c.11-.088.165-.18.165-.275 0-.11-.074-.292-.22-.55a7.414 7.414 0 0 0-.605-.867c-.293-.373-.537-.646-.732-.818-.192-.172-.35-.26-.465-.26-.257 0-.493.14-.71.414-.216.27-.324.6-.324.972 0 .302.077.637.228 1.007s.367.738.652 1.113c.433.578.97 1.023 1.61 1.336.64.31 1.35.466 2.126.466 1.428 0 2.624-.534 3.586-1.6.965-1.065 1.446-2.4 1.446-4.006 0-.49-.037-.882-.11-1.17-.074-.29-.193-.5-.363-.633-.3-.25-.885-.472-1.754-.67a12.178 12.178 0 0 0-2.72-.297c-.262 0-.45.044-.56.132-.11.088-.163.238-.163.45 0 .5.277.86.835 1.083.556.224 1.458.336 2.702.336h.45c.104 0 .187.04.25.117.06.076.103.19.124.346-.125.117-.38.25-.77.4-.39.15-.684.3-.89.445-.44.322-.792.705-1.06 1.148s-.4.863-.4 1.258c0 .243.056.534.17.874.113.34.17.55.17.632v.076l-.023.1c-.32-.02-.574-.21-.76-.565-.19-.355-.28-.83-.28-1.422v-.1a.484.484 0 0 1-.352.142.968.968 0 0 1-.19-.016 1.403 1.403 0 0 1-.195-.05 1.581 1.581 0 0 1 .065.42.92.92 0 0 1-.318.7 1.1 1.1 0 0 1-.76.29c-.46 0-.93-.227-1.406-.676-.477-.45-.714-.893-.714-1.324 0-.08.01-.152.027-.215s.05-.115.092-.16H3.9zm7.872-4.485c.657.125 1.123.403 1.393.836.273.43.408 1.11.408 2.042 0 1.846-.554 3.357-1.663 4.532C10.797 15.41 9.377 16 7.65 16a5.488 5.488 0 0 1-1.984-.37 4.895 4.895 0 0 1-1.654-1.027c-.526-.482-.922-.994-1.187-1.533a3.738 3.738 0 0 1-.395-1.652c0-.63.133-1.116.405-1.46.27-.347.7-.58 1.286-.704a5.612 5.612 0 0 1-.24-.65 1.547 1.547 0 0 1-.077-.406c0-.33.174-.668.52-1.01.35-.346.678-.52.985-.52.13 0 .27.025.417.072.146.05.316.128.505.238C5.667 5.38 5.257 4.148 5 3.28c-.256-.87-.385-1.467-.385-1.798 0-.454.117-.815.353-1.082.233-.266.554-.4.956-.4.688 0 1.56 1.54 2.615 4.616.182.528.32.934.417 1.22l.34-.968C10.354 1.82 11.26.298 12.022.298c.375 0 .674.126.897.38s.334.59.334 1.015c0 .323-.122.912-.368 1.77-.245.857-.616 1.978-1.114 3.363"/></svg>