<svg viewBox="0 0 16 16" xmlns="http://www.w3.org/2000/svg" fill-rule="evenodd" clip-rule="evenodd" stroke-linejoin="round" stroke-miterlimit="1.414"><path d="M13.836 7.725A6.072 6.072 0 0 0 10.64 4.54a5.786 5.786 0 0 0-2.31-.466L5.112 4.07a.736.736 0 0 1-.734-.733l-.002-2.03C4.378.577 3.788 0 3.036 0c-.74 0-1.343.603-1.343 1.343l.004 8.688c0 .82.157 1.6.468 2.32.313.72.746 1.36 1.287 1.91.544.54 1.184.98 1.902 1.29.72.31 1.5.47 2.315.47h.66c.81 0 1.59-.15 2.31-.46a6.06 6.06 0 0 0 1.9-1.28c.54-.54.97-1.18 1.28-1.9.31-.71.47-1.49.47-2.31 0-.81-.16-1.59-.47-2.31zm-2.214 2.31c0 .446-.085.875-.254 1.276-.17.41-.408.76-.707 1.05a3.302 3.302 0 0 1-2.33.97h-.65c-.45 0-.88-.08-1.28-.25a3.221 3.221 0 0 1-1.75-1.75c-.16-.4-.25-.83-.25-1.28v-1.9c0-.36.14-.71.4-.97s.61-.4.98-.4h2.57c.45 0 .88.09 1.28.25.4.17.76.41 1.05.71.3.3.54.66.71 1.05.17.4.26.83.26 1.28z"/></svg>