<svg viewBox="0 0 16 16" xmlns="http://www.w3.org/2000/svg" fill-rule="evenodd" clip-rule="evenodd" stroke-linejoin="round" stroke-miterlimit="1.414"><path d="M5.41 0h7.355c.118 0 .177.06.177.178v2.755c0 .12-.06.178-.177.178h-6.49c-.118 0-.177.06-.177.18v3c.03.12.09.18.178.18h5.755c.12 0 .18.06.18.18v2.66c0 .12-.06.18-.18.18H6.28c-.09 0-.148.06-.178.18v3.02c0 .12.06.18.177.18h6.71c.09 0 .15.05.18.14a2.725 2.725 0 0 1 0 1.33c-.07.29-.19.56-.36.8-.17.25-.45.46-.83.63-.39.17-.86.26-1.4.26H2.92c-.118 0-.178-.06-.178-.18V2.67c0-.74.26-1.37.778-1.89A2.57 2.57 0 0 1 5.41 0z"/></svg>