<svg xmlns="http://www.w3.org/2000/svg" viewBox="0 0 16 16"><path d="M8.433 1.785l-.163-.177c.002-.002.192-.178.275-.273.08-.098.228-.323.23-.324l.2.13c-.008.01-.156.24-.25.348-.09.11-.285.288-.292.297zM9.483 8.85c-.007-.003-.16-.103-.244-.147-.078-.04-.213-.098-.28-.128l.142-.408-.6-.296-.19.58c-.115.003-.475.036-1.006.26-.64.266-1.126.683-1.13.686l-.096.083.428.017.014-.01c.004-.004.48-.357.746-.47a1.47 1.47 0 0 1 .22-.07c-.14.07-.293.15-.4.212-.132.08-.38.255-.39.262l-.124.086.454.01.012-.006c.008-.005.776-.415 1.193-.506l.13-.032c.096-.025.165-.043.282-.043.104 0 .246.015.458.047.265.04.44.106.442.107l.16.062-.215-.29-.007-.005zM3.498 3.985h-.02l-.67.61v.02a.648.648 0 0 0 .172.478c.12.13.28.205.456.212h.03a.658.658 0 0 0 .66-.627.666.666 0 0 0-.628-.693zm-.03 1.22H3.44a.517.517 0 0 1-.22-.057.342.342 0 1 0-.284-.322.586.586 0 0 1-.03-.187l.608-.555a.566.566 0 0 1 .512.588.558.558 0 0 1-.56.533zm6.218-2.483l-.195-.13-.273.176-.264-.19-.2.12.27.194-.278.18.198.12.267-.17.258.187.206-.113-.272-.196"/><path d="M16 13.015c-.142-.138-.28-.277-.42-.418-.32-.325-.636-.655-.944-.99a21.205 21.205 0 0 1-1.055-1.228 9.944 9.944 0 0 1-.43-.588 6.5 6.5 0 0 1-.446-.81c-.14-.296-.266-.6-.384-.904.16.14.308.296.442.462.015-.144.027-.287.04-.432l.016-.215c0-.023.007-.045-.007-.064-.01-.02-.022-.034-.035-.05-.08-.1-.176-.188-.27-.276-.127-.12-.258-.24-.39-.355l-.12-.104a.68.68 0 0 0-.057-.05c-.02-.02-.027-.064-.036-.09l-.103-.32c.405.19.74.494 1.052.81a12.616 12.616 0 0 0-.006-.665c0-.02.004-.067-.01-.085-.008-.013-.02-.024-.028-.036a2.055 2.055 0 0 0-.238-.21 7.518 7.518 0 0 0-.352-.272 17.019 17.019 0 0 0-.318-.23c-.012-.01-.05-.026-.043-.04l.027-.053c.012-.023.008-.03.034-.02l.113.04c.272.104.52.245.763.405-.083-.3-.207-.59-.35-.864a6.7 6.7 0 0 0-.976-1.403 8.146 8.146 0 0 0-.813-.796 5.021 5.021 0 0 0-.466-.355c-.075-.05-.15-.1-.23-.145-.033-.02-.07-.037-.1-.062-.12-.096-.244-.19-.367-.286.16.065.313.14.46.225-.085-.13-.227-.22-.363-.29a3.91 3.91 0 0 0-.644-.252c.075-.08.156-.152.23-.232.076-.08.148-.164.22-.248.085-.1.168-.2.25-.303L8.875.732 8.555.53c-.082.164-.185.317-.305.453s-.26.246-.4.36c-.127.104-.252.21-.377.314-.032.027-.062.057-.096.08-.018.014-.064.003-.085.003h-.158c-.198.004-.397.02-.593.045-.04.005-.076.01-.117.006l-.12-.007c-.09-.005-.18-.01-.272-.01-.192-.003-.386 0-.58.017a3.323 3.323 0 0 0-.485.074c-.16.037-.308.114-.44.208a1.17 1.17 0 0 0-.337.353c-.078.14-.113.304-.142.46-.09.008-.178.006-.267.01a3.103 3.103 0 0 0-.807.146c-.33.103-.63.27-.89.5a2.96 2.96 0 0 0-.36.397c-.013.017-.024.034-.042.046-.005.005-.017.01-.022.018-.01.018-.022.034-.033.05l-.09.142c-.112.19-.184.396-.255.604l-.03.082.022-.014c-.007.045-.013.09-.017.135l-.005.07v.035l-.045.008c-.09.018-.18.04-.266.067-.08.027-.155.058-.224.1-.07.045-.13.103-.19.16a1.716 1.716 0 0 0-.458.752 1.51 1.51 0 0 0-.04.728c.014.06.033.125.072.174.05.06.133.084.208.063.088-.024.166-.083.247-.124l.21-.105c.304-.15.62-.297.958-.35.024-.003.067.045.087.06a1.655 1.655 0 0 0 .323.19 2.7 2.7 0 0 0 .544.154c.335.07.676.114 1.02.12.138.003.278 0 .417-.012.15-.013.3-.032.452-.034.166-.003.33.017.493.037a17.833 17.833 0 0 1 1.537.256c-.076.12-.15.242-.225.364-.005.008-.048 0-.058 0a1.083 1.083 0 0 0-.235.012c-.14.02-.277.055-.41.104-.326.12-.624.323-.884.555-.147.13-.286.272-.406.428-.032.042-.062.085-.092.128.07-.015.14-.03.212-.047.04-.01.078-.018.117-.026.015-.005.02-.01.033-.018.146-.135.3-.262.463-.375.074-.053.15-.103.232-.143.11-.055.235-.087.355-.116-.22.12-.452.233-.65.39-.115.092-.22.193-.328.293l.436-.07c.007 0 .01-.003.016-.006l.114-.063c.076-.042.153-.083.23-.123.16-.083.322-.16.488-.227.158-.063.32-.118.488-.15a.989.989 0 0 1 .433 0c.228.05.447.155.646.276.014.01.023.022.036.01.01-.01.066-.05.06-.062l-.12-.222c-.01-.02-.015-.033-.034-.044l-.087-.052a4.117 4.117 0 0 1-.34-.22c-.024-.016-.052-.027-.055-.06-.002-.03.01-.062.02-.09a1.626 1.626 0 0 1 .161-.276c.008-.012.006-.015.02-.01l.08.023c.157.052.312.106.474.147.18.045.363.082.546.117l.032.006c-.037-.02-.06-.06-.087-.09-.016-.02-.024-.033-.05-.04l-.07-.013c-.05-.01-.1-.02-.15-.032a4.213 4.213 0 0 1-.518-.14 7.387 7.387 0 0 0-.764-.214 18.026 18.026 0 0 0-1.476-.257c-.164-.023-.33-.047-.497-.058-.36-.023-.717.058-1.077.054a5.744 5.744 0 0 1-.73-.07L2.9 6.938c.168-.062.334-.126.5-.19.157-.063.314-.128.47-.193.084-.034.166-.07.248-.105.076-.033.15-.066.22-.113.272-.186.45-.484.65-.74.182-.24.39-.466.66-.605.085-.044.174-.078.266-.104-.188-.293-.366-.62-.415-.97.02.008.04.017.063.025.02.007.04.01.045.03l.02.09c.016.06.035.117.057.175.048.127.107.25.173.367.146.264.323.51.51.746.36.457.764.87 1.158 1.295.096.105.183.216.273.328.1.124.202.25.305.373.08.094.157.19.237.284l.063.075a.09.09 0 0 0 .04.024 113.885 113.885 0 0 0 2.087 1.011 11.842 11.842 0 0 0 .539.241c.01.006.02.01.032.015l.01.033a14.453 14.453 0 0 0 .913 2.205c.23.438.476.867.726 1.293a80.62 80.62 0 0 0 1.488 2.42c.098.152.194.306.293.458l.042.063.517-.76.128-.19a.406.406 0 0 0 .05-.072l-.104-.16c-.193-.3-.388-.6-.58-.9l-.553-.856-.07-.11.438.533.743.9c.08.097.158.192.236.29.146-.268.293-.533.44-.8.058-.11.118-.22.178-.328M8.088 1.277c.205-.164.375-.376.504-.604l.784.495.12.075c-.164.2-.33.403-.516.582-.024.023-.05.046-.073.07-.014.017-.03.033-.046.05l-.022.025c-.016-.004-.03-.01-.046-.013a5.914 5.914 0 0 0-.88-.176c-.128-.014-.257-.026-.385-.038.185-.157.372-.312.56-.465m-1.17.912c.155-.063.322-.1.487-.127a3.8 3.8 0 0 1 1.686.113l-.093.077-.152-.04a3.969 3.969 0 0 0-.78-.099 3.391 3.391 0 0 0-.914.106c-.2.052-.402.125-.585.222-.19.102-.37.23-.52.387a1.727 1.727 0 0 0-.38.583l-.02.05c-.002.01-.005.017-.008.026l-.045-.008-.055-.007c.157-.48.51-.858.946-1.1.137-.076.283-.145.433-.186m-2.62.25c.178-.254.458-.433.76-.495.334-.068.677-.08 1.016-.072-.35.087-.7.218-.992.435a1.519 1.519 0 0 0-.876.573H4.15c.016-.09.036-.18.065-.267.02-.06.043-.12.08-.173m.588.037a2.44 2.44 0 0 0-.26.313c-.032.046-.066.102-.12.127-.057.027-.13-.003-.188-.02.15-.186.348-.33.568-.42M1.54 4.39c.053-.107.12-.21.183-.31.01-.018.035-.03.05-.042a15.977 15.977 0 0 1 .721-.508 5 5 0 0 1 .335-.205c.12-.067.246-.12.376-.162.232-.075.472-.127.712-.163.115-.017.24-.038.354-.01-.22.125-.438.25-.66.372-.227.127-.46.245-.69.368-.222.12-.44.25-.654.384-.224.138-.446.28-.668.42-.053.034-.106.07-.16.103.03-.083.06-.167.1-.247m.674 2.037c-.02.038-.09.028-.125.028-.063 0-.124 0-.186.004-.172.01-.34.04-.505.092-.317.098-.616.25-.91.402-.067.036-.136.09-.212.108a.102.102 0 0 1-.11-.042.411.411 0 0 1-.044-.132 1.117 1.117 0 0 1-.022-.245c0-.22.052-.44.144-.64a1.56 1.56 0 0 1 .247-.383c.1-.116.217-.233.36-.3.237-.108.516-.142.776-.157.048-.003.096-.005.144-.005.066 0 .145-.01.207.013.05.018.08.07.1.115.03.07.05.15.067.224.04.173.082.35.096.527.007.08.01.16.002.24a.38.38 0 0 1-.03.15m1.884-1.315a2.152 2.152 0 0 1-.41.198c-.142.052-.29.096-.44.12a.982.982 0 0 1-.194.015c-.068-.002-.13-.024-.196-.045a1.91 1.91 0 0 1-.38-.156.312.312 0 0 1-.116-.1.19.19 0 0 1-.016-.115c.008-.154.063-.306.136-.44.125-.228.322-.408.56-.516.586-.264 1.243-.02 1.74.327l.054.04c-.103.11-.207.214-.315.318a3.05 3.05 0 0 1-.424.354M5.54 3.826a5.932 5.932 0 0 1-.903-.492c.3.126.622.2.943.247.172.025.347.048.52.053.188.005.376-.014.56-.05a4.04 4.04 0 0 0 1.044-.367c.33-.164.643-.358.942-.573a6.66 6.66 0 0 0 .422-.325c.014-.01.116-.107.122-.102l.028.02.357.277c.22.17.44.34.66.508-.605.217-1.218.42-1.835.603-.345.104-.692.2-1.043.28a4.686 4.686 0 0 1-.838.14c-.338.015-.67-.09-.98-.22m5.9 2.628c.05.014.096.03.143.045l.063.022c.01.004.02.01.03.013l.014.04c.03.097.06.192.092.288-.1-.085-.2-.17-.3-.253l-.06-.05c-.015-.01-.03-.014-.02-.03l.04-.076m-.447.963l.023-.042.018-.03c.008-.012.005-.015.02-.008.086.036.172.074.257.113.16.074.316.154.468.243.072.044.145.09.215.137l.1.07.05.038c.022.018.027.042.037.068a13.427 13.427 0 0 0 .391.94 7.519 7.519 0 0 0-.638-.697 10.8 10.8 0 0 0-.718-.654L11 7.416m2.497 4.28l-.08.06.005.01.042.062.18.28.603.935c.208.32.415.643.622.964l.205.32.057.088c.002.003.02.028.02.03-.175.257-.35.513-.523.77-.018.024-.034.05-.05.074a99.692 99.692 0 0 1-1.266-2.021c-.288-.473-.57-.946-.842-1.427-.255-.45-.5-.908-.706-1.384-.2-.465-.375-.94-.54-1.415.324.13.654.245.987.348.097.03.193.06.29.085l.042.012c.005 0 .01-.027.012-.033.012-.043.02-.086.03-.13.02-.084.034-.17.05-.254.137.285.29.563.467.824.143.21.297.414.456.614.348.437.718.855 1.097 1.264.307.33.62.656.938.977l.258.26c.004.003.027.02.025.026l-.02.035-.1.184-.392.712c-.12-.146-.24-.29-.36-.438l-.75-.908c-.21-.258-.424-.516-.636-.773l-.123-.15"/></svg>