<svg viewBox="0 0 16 16" xmlns="http://www.w3.org/2000/svg"><path d="M13.418 4.238a.275.275 0 0 0-.185-.06.44.44 0 0 0-.106.016c-.65.247-1.303.44-1.912.573a.383.383 0 0 0-.264.23c-.44 1.197-1.558 2.342-2.73 3.54a.304.304 0 0 1-.22.106.282.282 0 0 1-.22-.105c-1.172-1.2-2.29-2.335-2.732-3.542a.385.385 0 0 0-.264-.23 15.39 15.39 0 0 1-1.91-.58c-.037-.018-.072-.018-.107-.018a.297.297 0 0 0-.185.06.313.313 0 0 0-.115.266c.098.995.493 1.973 1.207 2.995.67.96 1.542 1.85 2.388 2.713 1.55 1.586 3.02 3.083 3.153 4.818.01.16.142.283.3.283h1.824a.322.322 0 0 0 .22-.096.307.307 0 0 0 .08-.22c-.063-1.164-.495-2.326-1.34-3.56-.177-.255-.362-.51-.564-.757-.08-.098-.044-.22.017-.29l.185-.187c.846-.862 1.718-1.753 2.388-2.713.713-1.02 1.11-1.99 1.207-2.995a.302.302 0 0 0-.115-.247zM6.035 11.56a.275.275 0 0 0-.21-.09.31.31 0 0 0-.248.142c-.766 1.172-1.163 2.273-1.215 3.383 0 .08.026.168.08.22a.28.28 0 0 0 .22.097h1.823a.3.3 0 0 0 .3-.282c.043-.537.202-1.066.51-1.63a.423.423 0 0 0-.035-.458c-.308-.396-.67-.81-1.225-1.383z"/><path d="M9.022 5.093a.277.277 0 0 1 .247.396c-.08.202-.424.933-1.067 1.56a.292.292 0 0 1-.212.078c-.05 0-.14-.01-.21-.08a4.928 4.928 0 0 1-1.067-1.56c-.008-.025-.025-.06-.025-.113 0-.16.132-.282.272-.282.132 0 .467.035 1.04.035s.907-.035 1.022-.035zM4.855 1.56a.963.963 0 0 0-.96.96c0 .53.432.96.96.96s.96-.43.96-.96a.97.97 0 0 0-.96-.96zm6.29 0a.963.963 0 0 0-.96.96.96.96 0 1 0 .96-.96zM8 .688a.96.96 0 1 0 0 1.92.96.96 0 0 0 0-1.92z"/></svg>