<svg xmlns="http://www.w3.org/2000/svg" viewBox="0 0 16 16"><path d="M6.965 14.247a.636.636 0 1 1-.637-.636c.35 0 .635.287.635.637m3.947-.001a.636.636 0 1 1-.638-.636c.351 0 .636.287.636.637"/><path d="M13.937 8.142l-.104-.136c-.03-.04-.063-.078-.095-.117-.03-.04-.062-.075-.093-.112-.07-.08-.14-.16-.214-.24l-.05-.053-.06-.066-.09-.087c-.01-.012-.022-.023-.034-.035a7.23 7.23 0 0 0-2.637-1.67l-.154-.052c.008-.018.017-.036.024-.055a2.739 2.739 0 0 0-.08-2.17 2.738 2.738 0 0 0-1.626-1.44c-.437-.144-.82-.213-1.14-.203-.022-.07-.067-.385.33-1.232L7.11 0l-.192.266c-.22.304-.432.597-.63.886a1.237 1.237 0 0 0-.83-.387l-.93-.058H4.52C4.498.705 4.473.705 4.45.705a1.25 1.25 0 0 0-1.247 1.17l-.058.935v.002a1.252 1.252 0 0 0 1.17 1.32l.668.04c-.044.56.048 1.08.27 1.537a7.512 7.512 0 0 0-2.44 1.656C.61 9.594.61 12.034.61 13.996v1.183l.87-.924c.176.62.434 1.205.762 1.744h1.132a6.136 6.136 0 0 1-1.12-2.565L3.53 12.08l-.657 2.06 1.16-.844c2.05-1.49 4.496-1.834 7.273-1.02 1.204.355 2.374.026 2.982-.838l.07-.11c.06.332.093.665.093.997 0 1.042-.17 2.458-.92 3.675h1.074c.518-1.042.788-2.288.788-3.675 0-1.466-.524-2.947-1.455-4.183zM5.93 4.128c.082-.668.386-1.3.82-1.98a.906.906 0 0 0 .856.499c.144-.005.404.017.822.155.476.158.857.496 1.072.95a1.808 1.808 0 0 1-.484 2.173l-.272-.335-.002-.002a.973.973 0 0 0-1.728.568c-.8-.36-1.2-1.095-1.085-2.027zM8.8 7.534l-.346.283a.152.152 0 0 1-.215-.021l-.074-.09a.159.159 0 0 1 .023-.223l.34-.28-.704-.866a.204.204 0 0 1 .03-.29.204.204 0 0 1 .29.027l1.975 2.43c.073.09.06.22-.028.29a.229.229 0 0 1-.084.042.184.184 0 0 1-.047.006.21.21 0 0 1-.16-.076l-.197-.243-.697.57a.163.163 0 0 1-.102.036.157.157 0 0 1-.124-.06l-.317-.386a.159.159 0 0 1 .023-.224l.7-.572-.285-.354zm-3.63-4.29l-.798-.05a.31.31 0 0 1-.29-.326l.06-.934a.308.308 0 0 1 .307-.29h.017l.934.06a.305.305 0 0 1 .289.326l-.005.067c-.214.378-.39.756-.516 1.146zm8.35 7.654c-.378.536-1.125.72-1.95.478-2.59-.76-4.93-.602-6.978.468l1.09-3.416-3.527 3.74a6.16 6.16 0 0 1 3.838-5.54 3.185 3.185 0 0 0 1.436.628.938.938 0 0 0 .14.938l.05.06c-.115.3-.07.65.147.916l.316.388a.928.928 0 0 0 1.31.132l.19-.155c.116.05.245.076.378.076a.974.974 0 0 0 .758-1.591L9.605 6.65c.096-.078.187-.163.272-.254.09.025.18.052.267.08a6.364 6.364 0 0 1 2.377 1.475c.02.02.04.037.057.056l.114.116c.025.026.05.053.073.08.054.057.107.117.16.178l.084.1c.03.035.058.07.087.107l.076.1c.026.034.053.068.078.103.558.766.658 1.553.27 2.105z"/><path d="M5.147 2.743L4.59 2.71l.035-.557.556.034z"/></svg>