<svg viewBox="0 0 16 16" xmlns="http://www.w3.org/2000/svg" fill-rule="evenodd" clip-rule="evenodd" stroke-linejoin="round" stroke-miterlimit="1.414"><path d="M7.654 11.174a.831.831 0 0 1-.825.827c-.46 0-.82-.36-.83-.82h-.01V7.02H6V7c0-.462.37-.837.825-.837.454 0 .824.375.824.838v.03h.01v4.15h-.01zm7.425-3.26c.5 0 .92.412.92.918a.926.926 0 0 1-1.85-.003c0-.51.41-.92.92-.92zm-1.39 2.79c.08.13.13.288.13.457a.83.83 0 0 1-1.55.42L10.9 9.75l-.42.39v1.09h-.01a.822.822 0 0 1-.815.78.821.821 0 0 1-.815-.827v-.016h-.01v-6.3h.018v-.03c0-.46.367-.835.82-.835.45 0 .817.374.817.835v.047h.01l.007 3.064 1.54-1.507a.823.823 0 0 1 .618-.27c.46 0 .833.38.833.84 0 .23-.088.43-.23.58l.008.01-1.08 1.07 1.52 2.04-.01.01zm-8.83 0c.08.13.13.288.13.457a.83.83 0 0 1-1.55.42L2.07 9.75l-.42.39v1.088h-.01a.82.82 0 0 1-.814.78.822.822 0 0 1-.816-.826v-.016H0v-6.3h.02c-.002-.01-.002-.02-.002-.03 0-.46.367-.834.82-.834.45 0 .817.372.817.833v.047h.01l.007 3.066 1.54-1.507a.826.826 0 0 1 .62-.27c.458 0 .83.38.83.84 0 .22-.087.43-.23.58l.01.01-1.084 1.07 1.514 2.04-.01.01z"/></svg>