<svg viewBox="0 0 16 16" xmlns="http://www.w3.org/2000/svg" fill-rule="evenodd" clip-rule="evenodd" stroke-linejoin="round" stroke-miterlimit="1.414"><path d="M12.91 6.57c.232 0 .42.19.42.42 0 .23-.188.42-.42.42h-1.17v.75h1.17a.42.42 0 1 1 0 .84h-1.59a.42.42 0 0 1-.418-.42V5.4c0-.23.188-.42.42-.42h1.59a.42.42 0 0 1-.002.84h-1.17v.75h1.17zm-2.57 2.01a.421.421 0 0 1-.421.418c-.14 0-.26-.06-.34-.167L7.95 6.62v1.96a.42.42 0 0 1-.42.42.42.42 0 0 1-.417-.42V5.4a.418.418 0 0 1 .416-.419c.13 0 .25.07.33.17L9.5 7.37V5.4c0-.23.188-.42.42-.42.23 0 .42.19.42.42v3.18zm-3.828 0c0 .23-.188.42-.42.42a.42.42 0 0 1-.418-.42V5.4c0-.23.188-.42.42-.42.23 0 .418.19.418.42v3.18zM4.868 9h-1.59c-.23 0-.42-.19-.42-.42V5.4c0-.23.19-.42.42-.42.232 0 .42.19.42.42v2.76h1.17a.42.42 0 1 1 0 .84M16 6.87C16 3.29 12.41.376 8 .376S0 3.29 0 6.87c0 3.208 2.846 5.896 6.69 6.405.26.056.615.172.705.394.08.2.053.51.026.72l-.11.68c-.03.2-.16.79.7.43.86-.36 4.61-2.72 6.29-4.65C15.45 9.59 16 8.3 16 6.87" fill-rule="nonzero"/></svg>