<svg xmlns="http://www.w3.org/2000/svg" viewBox="0 0 158.75 158.75"><path fill="#a7a7a7" fill-rule="evenodd" stroke-width=".902" stroke-linecap="round" stroke-linejoin="round" paint-order="stroke fill markers" d="M0 0h158.75v158.75H0z"/><path d="M78.562-.077L7.996 42.676v19.297l44.672 41.801 10.921-11.671-32.198-30.13h94.25l-32.198 30.13 10.921 11.671 44.672-41.8h.092V42.675h-.001z" fill="#373737" stroke-width=".067" stroke-dasharray=".06724758,.26899032"/><path fill="#373737" stroke-width=".554" stroke-linecap="round" stroke-linejoin="round" paint-order="stroke fill markers" d="M29.865 45.323h98.702v30.24H29.865z"/><path fill="#c57451" fill-rule="evenodd" stroke-width="2.155" stroke-linecap="round" stroke-linejoin="round" paint-order="stroke fill markers" d="M76.043 47.672h4.838v5.243h-4.838z"/><path fill="#909090" fill-rule="evenodd" stroke-width="2.311" stroke-linecap="round" stroke-linejoin="round" paint-order="stroke fill markers" d="M63.248 14.132h5.19v5.62h-5.19z"/><path d="M76.584 82.495l-37.03 39.774h21.838l26.89-28.883z" fill="#373737" stroke-width=".317" stroke-linecap="round" stroke-linejoin="round" paint-order="stroke fill markers"/><path d="M81.983 82.49L70.285 93.383l26.893 28.887h21.84z" fill="#373737" stroke-width=".317" stroke-linecap="round" stroke-linejoin="round" paint-order="stroke fill markers"/><path d="M78.562 1.988L45.956 21.743h65.212z" fill="#a7a7a7" stroke-width="1.03" stroke-linecap="round" stroke-linejoin="round" paint-order="stroke fill markers"/><path d="M78.562 1.78L13.003 41.5c.14.33.246.685.291 1.05.783-.211 1.562-.43 2.339-.66l62.93-38.126 65.343 39.59h.001v.102c.327-.443.796-1.07 1.08-1.43zM10.52 60.866v.271l.09-.138c-.03-.047-.06-.088-.09-.133zm100.468.346h-.045c.013.046.026.078.041.134h.033l-.029-.138zm-68.523 0h.136zm1.897 0c.294.02.588.03.882 0zm38.832.376c-.047 0-.1 0-.153.019h.224c-.024 0-.046-.02-.07-.02zm-42.01 27.555c.052.046.108.101.163.154.021-.047.044-.092.063-.139-.082 0-.15-.02-.227-.02zm70.579 4.765c-.047.062-.092.125-.14.187.096-.025.165-.047.23-.062-.032-.041-.06-.084-.09-.125zm.01.205l-.258.123c-.11.14-.22.284-.328.427zm-1.683 1.575l-.372.17c.022.04.04.082.057.123zm-57.975 1.929c-.119.074-.239.146-.357.22.164-.019.363-.025.55-.04zm55.427.455a1.36 1.36 0 0 1-.11.05c-.005.022-.009.047-.015.067z" fill="#a7a7a7" stroke-width=".065" stroke-dasharray=".06484244,.25936974"/><path d="M1.56 128.286v30.387h30.388v-30.387zm15.18 8.73c.585 0 1.18.053 1.787.158.607.106 1.227.265 1.861.476v1.644a10.387 10.387 0 0 0-1.811-.683 6.416 6.416 0 0 0-1.644-.226c-.918 0-1.628.178-2.128.535-.496.356-.742.863-.742 1.52 0 .55.163.967.491 1.25.334.278.963.504 1.886.677l1.019.207c1.257.239 2.184.662 2.78 1.268.6.601.9 1.408.9 2.42 0 1.208-.406 2.123-1.218 2.746-.807.624-1.992.936-3.556.936-.59 0-1.218-.066-1.886-.2-.662-.133-1.35-.33-2.062-.592v-1.737a9.868 9.868 0 0 0 2.012.869 6.766 6.766 0 0 0 1.936.292c.963 0 1.705-.19 2.229-.567.523-.379.784-.918.784-1.62 0-.611-.189-1.09-.567-1.436-.373-.345-.988-.603-1.845-.776l-1.025-.2c-1.258-.25-2.169-.643-2.73-1.177-.563-.535-.843-1.277-.843-2.228 0-1.102.387-1.97 1.16-2.605.78-.634 1.85-.95 3.213-.95z" fill="#6f7451" stroke-width="2.429" stroke-linecap="round" stroke-linejoin="round" paint-order="stroke fill markers"/><path fill="#c57451" fill-rule="evenodd" stroke-width="2.311" stroke-linecap="round" stroke-linejoin="round" paint-order="stroke fill markers" d="M61.642 55.512h5.19v5.62h-5.19z"/><path fill="#909090" fill-rule="evenodd" stroke-width="2.311" stroke-linecap="round" stroke-linejoin="round" paint-order="stroke fill markers" d="M84.28 35.357h5.19v5.621h-5.19zM76.513 25.715h5.19v5.621h-5.19zM67.423 39.946h5.19v5.621h-5.19z"/><path fill="#c57451" fill-rule="evenodd" stroke-width="2.311" stroke-linecap="round" stroke-linejoin="round" paint-order="stroke fill markers" d="M87.066 50.697h5.19v5.62h-5.19z"/><path fill="#c54751" fill-rule="evenodd" stroke-width="2.548" stroke-linecap="round" stroke-linejoin="round" paint-order="stroke fill markers" d="M76.87 62.756h5.723v6.2H76.87z"/><path fill="#c54751" fill-rule="evenodd" stroke-width="1.827" stroke-linecap="round" stroke-linejoin="round" paint-order="stroke fill markers" d="M54.36 71.838h4.84v3.768h-4.84z"/><path fill="#c54751" fill-rule="evenodd" stroke-width="2.548" stroke-linecap="round" stroke-linejoin="round" paint-order="stroke fill markers" d="M94.21 67.503h5.722v6.2h-5.723z"/></svg>