<svg viewBox="0 0 16 16" xmlns="http://www.w3.org/2000/svg" fill-rule="evenodd" clip-rule="evenodd" stroke-linejoin="round" stroke-miterlimit="1.414"><g fill-rule="nonzero"><path d="M14.634 12.716a.538.538 0 0 1-.447-.83 4.41 4.41 0 0 0 .75-2.48 4.41 4.41 0 0 0-.75-2.48.533.533 0 0 1 .884-.595c.61.91.93 1.98.93 3.08s-.32 2.17-.93 3.08c-.09.16-.26.24-.43.24z"/><path d="M13.108 11.853a.53.53 0 0 1-.298-.092.519.519 0 0 1-.143-.73c.326-.48.498-1.03.498-1.62 0-.57-.172-1.13-.498-1.62a.519.519 0 0 1 .143-.73.53.53 0 0 1 .738.15c.446.66.68 1.43.68 2.21 0 .8-.234 1.56-.68 2.21a.51.51 0 0 1-.44.24zM10.62 7.085a4.22 4.22 0 0 0-4.2-3.8A4.233 4.233 0 0 0 2.423 6.14 2.842 2.842 0 0 0 0 8.942a2.843 2.843 0 0 0 2.84 2.836h7.272a2.378 2.378 0 0 0 2.378-2.372c0-1.137-.8-2.086-1.87-2.32zm-.508 3.63h-7.27a1.78 1.78 0 0 1-1.78-1.772c0-.977.796-1.772 1.78-1.772.473 0 .92.19 1.257.52.2.21.54.21.75 0 .2-.2.2-.54 0-.75-.37-.36-.82-.62-1.31-.74.5-1.11 1.62-1.85 2.87-1.85 1.74 0 3.16 1.42 3.16 3.16 0 .34-.05.67-.16.99a.545.545 0 0 0 .5.71c.22 0 .43-.14.5-.36.07-.21.12-.42.15-.64.49.19.84.67.84 1.22 0 .73-.59 1.32-1.31 1.32z"/></g></svg>