<svg viewBox="0 0 16 16" xmlns="http://www.w3.org/2000/svg" fill-rule="evenodd" clip-rule="evenodd" stroke-linejoin="round" stroke-miterlimit="1.414"><path d="M12.533 6.84L8.77 10.45a1.095 1.095 0 0 1-1.52 0L3.488 6.84a1.097 1.097 0 0 1 1.518-1.583l3.005 2.88 3.01-2.88c.44-.42 1.13-.405 1.55.032.42.43.41 1.13-.03 1.55zm3.388-5.028a1.44 1.44 0 0 0-1.36-.956H1.45A1.458 1.458 0 0 0-.002 2.307v4.828l.055.96c.232 2.184 1.365 4.092 3.12 5.423.03.024.063.047.095.07l.02.015a7.933 7.933 0 0 0 3.128 1.382c.524.105 1.06.16 1.592.16.492 0 .986-.046 1.472-.136.058-.02.116-.03.175-.04.016 0 .033-.01.05-.02a7.985 7.985 0 0 0 3.004-1.35l.02-.02.09-.07c1.75-1.33 2.88-3.24 3.12-5.43l.05-.96V2.3c0-.167-.02-.333-.08-.495z" fill-rule="nonzero"/></svg>