<svg viewBox="0 0 16 16" xmlns="http://www.w3.org/2000/svg" fill-rule="evenodd" clip-rule="evenodd" stroke-linejoin="round" stroke-miterlimit="1.414"><path d="M8 16s1.75 0 1.75-5.18c0-.965-.784-1.75-1.75-1.75s-1.75.785-1.75 1.75C6.25 16 8 16 8 16zm2.147-1.766c.077-.296.136-.595.183-.897l.035-.24a6.32 6.32 0 0 0 3.12-2.753c.297-.534.516-1.11.646-1.71.15-.67.19-1.368.11-2.052a5.99 5.99 0 0 0-.51-1.853c-.31-.69-.74-1.32-1.28-1.85-.55-.55-1.2-1-1.91-1.31-.73-.33-1.53-.5-2.34-.52-.81-.02-1.62.11-2.38.4-.73.28-1.4.69-1.98 1.22a6.244 6.244 0 0 0-1.97 5.57c.09.58.26 1.15.51 1.69a6.305 6.305 0 0 0 2.83 2.92c.15.07.3.14.46.21.01.08.03.17.04.26.05.29.11.59.18.88a7.312 7.312 0 0 1-4.19-3.47 7.5 7.5 0 0 1-.73-2c-.17-.77-.2-1.58-.1-2.37.1-.74.31-1.47.62-2.14.37-.79.89-1.52 1.51-2.13A6.957 6.957 0 0 1 5.2.62 7.307 7.307 0 0 1 7.933.05c.938-.01 1.877.16 2.75.503a7.272 7.272 0 0 1 4.508 5.636c.12.76.12 1.54-.01 2.29-.11.7-.34 1.39-.65 2.03a7.288 7.288 0 0 1-3.27 3.27c-.35.17-.72.32-1.1.44zm.346-2.854l.006-.312c0-.21 0-.42-.03-.627-.01-.08-.03-.15-.05-.23a3.73 3.73 0 0 0 1.28-2.14c.08-.4.1-.82.04-1.24-.05-.37-.15-.73-.3-1.07-.19-.41-.45-.79-.77-1.11-.33-.32-.7-.58-1.12-.77-.46-.2-.96-.32-1.46-.33-.5-.01-1.01.08-1.48.26-.42.17-.81.41-1.15.72-.34.31-.62.67-.82 1.08-.17.33-.29.68-.36 1.05a3.7 3.7 0 0 0-.03 1.15c.05.37.15.73.3 1.07.23.51.57.96.99 1.33l-.06.27c-.04.21-.03.41-.03.63v.28a4.73 4.73 0 0 1-1.67-1.77c-.23-.41-.39-.85-.48-1.31a4.54 4.54 0 0 1-.06-1.56 4.753 4.753 0 0 1 1.35-2.76c.41-.41.89-.74 1.41-.97.58-.26 1.21-.4 1.84-.42.64-.01 1.28.1 1.87.33.54.21 1.03.52 1.46.91.42.39.78.85 1.04 1.36.21.42.37.87.45 1.33.08.48.1.97.03 1.45-.06.47-.19.93-.39 1.36-.39.87-1.06 1.62-1.88 2.11zM8 5.016c.974 0 1.764.79 1.764 1.765a1.763 1.763 0 1 1-3.528.01c0-.97.79-1.761 1.764-1.761z"/></svg>