<svg xmlns="http://www.w3.org/2000/svg" viewBox="0 0 16 16"><path d="M14.605 3.508a8.121 8.121 0 0 0-2.1-2.086A8.08 8.08 0 0 0 7.152.04c-1.797.194-3.335.87-4.6 2C1.38 3.086.606 4.365.265 5.586c-.344 1.22-.298 2.35-.175 3.2.13.863.56 1.95.56 1.95.088.208.21.293.273.328.314.172.83.02 1.226-.424a.113.113 0 0 0 .02-.097c-.11-.426-.15-.746-.19-.994-.09-.49-.13-1.31-.07-2.07.03-.41.11-.85.25-1.31.27-.91.84-1.86 1.73-2.65a6.263 6.263 0 0 1 3.36-1.51c.41-.05 1.19-.097 2.13.135.2.05 1.06.274 1.98.897a5.89 5.89 0 0 1 1.58 1.573c.38.53.79 1.425.91 2.08.17.746.17 1.536.05 2.306-.15.77-.42 1.52-.84 2.18-.29.51-.89 1.187-1.6 1.694-.64.45-1.37.775-2.12.954-.38.09-.76.147-1.15.16-.347.01-.807 0-1.13-.054-.48-.076-.58-.2-.69-.366 0 0-.076-.12-.098-.44.007-2.933.006-2.15.006-3.672 0-.43-.015-.82-.01-1.174.02-.582.07-.98.485-1.414.3-.318.72-.51 1.183-.51.14 0 .624.006 1.05.36.456.38.532.9.55 1.04.104.814-.434 1.42-.64 1.574a2.333 2.333 0 0 1-.64.34c-.33.11-.693.142-1.02.12a.1.1 0 0 0-.105.08l-.11.57c-.107.433.134.59.273.646.447.138.843.195 1.312.16.72-.05 1.43-.333 2.032-.895a2.982 2.982 0 0 0 .905-1.76 3.91 3.91 0 0 0-.37-2.23 3.576 3.576 0 0 0-1.87-1.72c-.86-.338-1.544-.35-2.425-.125l-.01.003c-.573.197-1.064.44-1.573.967-.35.363-.636.803-.81 1.3-.173.5-.22.873-.228 1.454-.01.43.01.83.01 1.203v2.464c0 .788-.027.925 0 1.33.015.27.052.574.17.9.12.36.375.73.55.9.244.26.555.47.86.6.7.31 1.65.36 2.42.33.51-.02 1.023-.09 1.526-.21a8.167 8.167 0 0 0 2.82-1.276c.91-.642 1.7-1.517 2.137-2.26a8.148 8.148 0 0 0 1.11-2.89 7.986 7.986 0 0 0-.065-3.07c-.18-.933-.66-1.955-1.214-2.78z"/></svg>