<svg viewBox="0 0 16 16" xmlns="http://www.w3.org/2000/svg" fill-rule="evenodd" clip-rule="evenodd" stroke-linejoin="round" stroke-miterlimit="1.414"><g fill-rule="nonzero"><path d="M8 7.998a.878.878 0 1 1 0-1.756.878.878 0 0 1 0 1.756zm1.944-.014c0-1.886-.74-3.598-1.944-4.866a7.043 7.043 0 0 0-1.944 4.866c0 .864.156 1.69.44 2.455-.412.6-.716 1.44-.85 2.41.426-.51.948-.87 1.528-1.06.242.37.52.73.826 1.05.307-.33.584-.68.826-1.06.58.18 1.102.55 1.527 1.05-.133-.97-.437-1.81-.85-2.41.284-.77.44-1.59.44-2.46z"/><path d="M8 14.667A6.667 6.667 0 1 1 8 1.333a6.667 6.667 0 0 1 0 13.334zM8 0a8 8 0 1 0 0 16A8 8 0 0 0 8 0z"/></g></svg>