<svg viewBox="0 0 16 16" xmlns="http://www.w3.org/2000/svg" fill-rule="evenodd" clip-rule="evenodd" stroke-linejoin="round" stroke-miterlimit="1.414"><path d="M8.007 2.65l.007-.008c.333-.32.685-.62 1.062-.887a5.963 5.963 0 0 1 .874-.524c.11-.05.22-.1.333-.14a3.202 3.202 0 0 1 .797-.19h.182c.047 0 .094 0 .14.01.1.01.2.03.297.06.08.03.16.06.24.1.05.03.09.06.14.09.08.06.15.12.21.19.05.07.11.13.15.2.1.16.18.33.24.5.02.05.03.1.05.16.02.07.03.14.05.21.02.09.03.18.05.27l.03.34c.01.14.01.29.01.44 0 .19-.01.38-.03.57-.03.24-.06.47-.1.7-.03.14-.05.28-.08.42l-.06.24.13.04c.24.07.47.15.71.24.18.07.37.15.55.24.16.08.32.16.47.25.17.1.33.2.48.32.13.1.26.21.38.32.09.09.17.18.25.28.06.08.12.17.17.26.07.13.12.26.16.4.02.08.03.17.03.26 0 .05 0 .11-.01.17-.01.09-.03.19-.06.28-.02.09-.06.17-.1.25-.09.17-.2.33-.33.48-.04.05-.08.09-.12.13-.06.06-.11.11-.17.16-.07.06-.15.13-.23.18-.1.08-.2.15-.3.21-.13.09-.27.17-.41.24-.18.09-.35.18-.53.26a9 9 0 0 1-.55.22c-.16.06-.32.11-.48.16l-.05.02c.02.08.04.16.05.24.02.12.05.24.07.36.04.24.08.49.1.73.01.19.02.38.02.56a6.192 6.192 0 0 1-.06.79c-.02.09-.03.19-.05.28l-.06.22c-.04.12-.09.25-.14.37-.05.09-.1.19-.16.28-.06.09-.13.17-.21.25-.09.09-.19.16-.29.22-.08.04-.17.08-.25.1-.14.04-.28.06-.42.068-.19.006-.38-.02-.57-.06a2.74 2.74 0 0 1-.34-.1c-.13-.04-.25-.094-.37-.15-.15-.066-.29-.14-.43-.22-.16-.09-.32-.19-.47-.3-.39-.27-.76-.58-1.1-.91l-.08.07c-.16.15-.32.29-.48.43-.17.13-.34.26-.52.39-.16.11-.32.21-.49.31-.16.09-.33.17-.49.24-.12.05-.24.1-.36.14-.12.036-.23.07-.35.09-.19.04-.37.06-.56.056-.15 0-.3-.02-.44-.07a.96.96 0 0 1-.26-.11c-.06-.03-.11-.07-.16-.11a.902.902 0 0 1-.1-.09.234.234 0 0 1-.07-.07 1.72 1.72 0 0 1-.33-.51l-.03-.09c-.01-.04-.03-.08-.04-.11-.02-.05-.03-.11-.05-.16-.02-.07-.03-.13-.05-.2-.02-.09-.04-.174-.05-.263-.01-.11-.03-.23-.03-.34-.01-.15-.01-.29-.01-.44 0-.19.01-.38.03-.56.02-.24.06-.47.1-.71l.12-.57-.2-.06a9.51 9.51 0 0 1-.7-.25 4.84 4.84 0 0 1-.47-.21c-.14-.07-.28-.14-.42-.23a4.515 4.515 0 0 1-.898-.66C.56 9.2.47 9.1.39 9a2.44 2.44 0 0 1-.19-.282c-.05-.09-.09-.186-.126-.284C.064 8.39.05 8.344.04 8.3a1.17 1.17 0 0 1-.032-.46c.006-.044.013-.09.023-.133L.06 7.6c.064-.21.175-.406.31-.58a2.433 2.433 0 0 1 .255-.289l.17-.15c.075-.06.15-.12.228-.18.1-.07.204-.14.31-.21.13-.08.266-.16.404-.23.176-.09.356-.17.54-.25.33-.14.668-.25 1.012-.35l.08-.02c-.05-.21-.1-.42-.14-.63-.04-.22-.08-.45-.1-.68-.02-.18-.03-.36-.04-.55-.01-.14 0-.29 0-.44 0-.11.01-.22.03-.33a2.512 2.512 0 0 1 .09-.48c.01-.05.03-.11.05-.16l.04-.1c.01-.03.02-.06.04-.09.08-.18.18-.36.32-.51.03-.03.06-.06.1-.09.03-.03.06-.05.09-.08.04-.03.09-.06.14-.09.08-.04.16-.08.25-.1.1-.03.2-.05.3-.06.03 0 .06-.01.09-.01h.15l.11.01c.16.02.32.05.48.09.1.03.21.06.31.1.11.04.21.09.32.14.16.08.31.16.46.25.16.1.32.2.48.31.18.13.36.27.54.42.14.12.27.24.41.36l.09.09zm4.007 8.198a15.26 15.26 0 0 1-2.043.323c-.04.01-.08.01-.12.02-.18.27-.38.54-.58.79-.21.28-.43.55-.66.8l-.1.11c.3.29.61.56.95.8.14.1.28.19.42.28.12.08.25.14.38.21.11.05.22.1.34.14.09.03.18.06.28.08.08.02.16.04.24.04.07.01.14.01.2.01.1 0 .21-.02.3-.06l.08-.04a.47.47 0 0 0 .15-.13c.06-.07.11-.15.16-.23.02-.02.03-.05.05-.08l.05-.12c.02-.05.04-.1.05-.16.02-.07.04-.13.05-.2.02-.09.03-.18.05-.27.02-.09.02-.19.03-.29.01-.22.01-.44-.01-.66-.01-.21-.04-.43-.07-.64-.03-.17-.06-.35-.1-.52l-.04-.17zm-7.993.03l-.06.29c-.07.332-.12.668-.15 1.007-.02.224-.02.45-.02.674.01.09.01.19.02.29.01.09.03.17.04.26.01.06.03.13.04.19.02.05.03.1.05.15.02.04.03.08.05.12l.05.09c.01.02.02.04.04.06l.03.05.03.04c.06.08.12.15.21.2l.06.03c.05.02.09.04.14.05.07.01.13.02.2.02s.14 0 .2-.01c.08-.01.16-.03.24-.04.1-.02.19-.05.28-.08a4.294 4.294 0 0 0 .74-.35c.15-.09.3-.19.45-.29.15-.11.3-.22.44-.34.09-.07.17-.14.26-.22.07-.07.15-.13.22-.2l.03-.03-.17-.19c-.23-.26-.45-.53-.67-.8a18.7 18.7 0 0 1-.53-.71h-.06a25.9 25.9 0 0 1-.92-.1c-.28-.04-.56-.09-.84-.14l-.33-.07zm4.95.362a23.072 23.072 0 0 1-1.8.007l-.1-.003.21.262c.2.246.4.486.61.72.05.057.1.114.16.17l.08-.09c.21-.237.41-.483.61-.735.08-.1.17-.21.25-.33zm.5-5.762a18.298 18.298 0 0 0-1.41-.055h-.07c-.15 0-.29.002-.44.006-.33 0-.66.02-.99.04-.19.28-.37.56-.55.85-.2.33-.39.67-.57 1.01-.11.21-.22.43-.33.65.12.24.24.48.37.71.19.35.39.69.59 1.03.17.26.34.53.51.78l.6.03c.29.01.57.01.86.01.49 0 .98-.02 1.46-.05.17-.25.33-.51.49-.76.35-.58.68-1.17.97-1.78-.1-.21-.2-.41-.31-.61-.14-.27-.29-.53-.44-.78-.21-.36-.43-.72-.67-1.07l-.04-.06zm-4.74 3.33c-.07.18-.15.366-.22.55-.11.285-.21.572-.3.86.17.04.35.072.52.102.25.044.51.08.76.112.07.01.14.017.21.024-.11-.173-.22-.348-.32-.524-.22-.368-.43-.744-.63-1.125zm6.57-.026c-.1.197-.21.39-.31.585-.12.216-.24.43-.37.644-.08.15-.17.29-.26.44l.15-.02c.25-.03.5-.07.74-.11.2-.03.41-.07.61-.12a8.74 8.74 0 0 0-.29-.81c-.07-.2-.16-.4-.24-.59zm-7.74-2.8l-.22.066a7.796 7.796 0 0 0-1.14.448 6.36 6.36 0 0 0-.44.24c-.12.075-.25.158-.36.248-.09.066-.17.136-.25.212-.07.063-.13.13-.19.2-.04.055-.08.11-.12.17-.03.05-.06.1-.08.154a.605.605 0 0 0-.05.23v.06c0 .088.03.176.06.257l.02.043.03.052.04.07.06.085.08.096c.03.04.07.078.1.115.05.046.09.09.14.134.06.05.11.097.17.143.08.06.16.12.24.176.1.07.2.14.31.2.14.08.28.15.42.22.17.08.35.16.52.23.16.06.31.12.46.16l.23.07.21-.63c.13-.35.26-.69.41-1.03l.18-.38-.17-.38c-.15-.34-.29-.7-.42-1.05-.07-.19-.14-.39-.2-.59zm8.91.01a9.62 9.62 0 0 1-.17.513c-.12.358-.26.712-.42 1.06l-.19.425.24.52c.15.325.28.654.4.987.07.172.13.346.18.52l.12-.036c.14-.04.27-.08.4-.13.27-.09.53-.2.78-.33.16-.07.31-.16.45-.25.13-.07.25-.16.37-.25.09-.06.17-.13.25-.21.07-.06.14-.14.2-.21.05-.05.09-.11.13-.17.03-.05.06-.1.08-.15.04-.07.06-.15.06-.24.01-.02.01-.04 0-.07 0-.05-.01-.11-.03-.16a.663.663 0 0 0-.09-.19l-.03-.06-.05-.07c-.02-.03-.05-.06-.07-.09-.03-.03-.06-.07-.1-.11-.04-.04-.09-.08-.13-.12-.06-.05-.12-.1-.19-.15-.07-.06-.15-.11-.22-.16-.1-.07-.2-.13-.31-.19a5.19 5.19 0 0 0-.41-.2c-.16-.08-.33-.14-.5-.21-.23-.09-.47-.16-.71-.23zM8 6.56a1.43 1.43 0 1 1 0 2.861A1.43 1.43 0 0 1 8 6.56zm2.336-.99c.176.274.345.554.508.837.15.262.298.527.44.795.085-.202.167-.406.245-.612.09-.253.18-.508.26-.766a15.596 15.596 0 0 0-1.47-.255zm-4.67-.003a15.468 15.468 0 0 0-1.165.19c-.09.018-.19.038-.28.06.09.275.18.548.28.817.07.19.15.38.23.567.18-.34.37-.69.57-1.02.13-.2.25-.41.38-.61zm6.313-.402l.03-.133c.04-.174.07-.348.1-.524.04-.228.06-.46.08-.69.01-.225.02-.452.01-.678-.01-.102-.01-.205-.03-.306-.01-.09-.03-.177-.04-.264-.02-.068-.03-.135-.05-.2-.02-.05-.03-.1-.05-.15L12 2.104l-.037-.078c-.013-.024-.025-.048-.04-.07a.425.425 0 0 0-.035-.058c-.01-.013-.018-.027-.027-.04a.669.669 0 0 0-.29-.24.727.727 0 0 0-.23-.05c-.02 0-.04 0-.06-.002h-.02c-.02 0-.04 0-.07.003-.06 0-.12.01-.18.02-.07.01-.15.03-.22.05l-.27.09c-.1.04-.2.09-.31.14-.13.06-.25.14-.38.21-.13.08-.27.17-.4.27-.32.23-.62.49-.91.77l.13.14c.26.28.5.57.73.87.17.21.33.44.49.66l.41.04c.3.03.6.08.9.13.28.04.56.1.83.16zM7.53 3.137c-.015-.013-.03-.026-.043-.04a9.711 9.711 0 0 0-.868-.719c-.15-.102-.29-.198-.44-.288-.13-.078-.27-.15-.4-.217-.1-.047-.2-.09-.3-.13a3.787 3.787 0 0 0-.28-.09c-.07-.02-.14-.034-.21-.047-.07-.01-.13-.018-.19-.022l-.07-.002h-.01c-.02 0-.04 0-.06.002a.836.836 0 0 0-.38.108.575.575 0 0 0-.15.135c-.06.07-.11.147-.15.228l-.04.084c-.02.03-.03.07-.04.11-.02.05-.04.09-.05.14-.01.06-.03.13-.04.19-.01.08-.03.16-.04.25-.01.09-.02.19-.02.29-.01.22 0 .44.01.66.02.34.08.68.15 1.02.02.11.05.22.07.33.1-.03.21-.05.31-.07.24-.05.49-.1.74-.13.27-.05.55-.08.82-.11l.25-.03c.16-.23.33-.45.5-.67.22-.28.45-.56.69-.82l.18-.2zm.478.488l-.163.18c-.214.24-.42.486-.618.738l-.17.22a19.209 19.209 0 0 1 .85-.023h.116a20.74 20.74 0 0 1 .926.022l-.16-.2c-.21-.272-.43-.538-.66-.794L8 3.625z"/></svg>