<svg viewBox="0 0 16 16" xmlns="http://www.w3.org/2000/svg" fill-rule="evenodd" clip-rule="evenodd" stroke-linejoin="round" stroke-miterlimit="1.414"><path d="M1.837 15.955l.443-.095a44.734 44.734 0 0 1 1.05-.206c.16-.03.32-.057.48-.085l.037-.01c.166-.03.332-.06.498-.08l.81-.12V-.05h-.028a43.777 43.777 0 0 0-2.646.094c-.2.014-.4.03-.6.047h-.03v15.86zM5.94-.04v15.3a41 41 0 0 1 8.222-.137V.953a38.38 38.38 0 0 0-2.02-.405A41.264 41.264 0 0 0 8.177.06a39.723 39.723 0 0 0-2.236-.1zm7.177 9.868l-.03-.003-.374-.04a40.55 40.55 0 0 0-2.806-.194c-.938-.03-1.877-.02-2.815.01h-.03c-.03 0-.06 0-.09-.01a.398.398 0 0 1-.178-.1.392.392 0 0 1-.104-.33c.006-.04.02-.07.036-.11a.311.311 0 0 1 .07-.09c.028-.03.06-.05.095-.07.04-.02.08-.03.12-.04h.06c.13 0 .26-.01.38-.01.93-.02 1.85-.02 2.78.02.96.04 1.91.11 2.86.22l.1.01c.03.01.06.01.09.02.07.03.13.07.17.12.03.03.05.07.07.11.02.04.03.08.03.12.01.11-.03.22-.11.3a.55.55 0 0 1-.09.07c-.03.02-.07.03-.11.04-.02.01-.03.01-.06.01h-.03zm.024-1.808c-.03 0-.03 0-.06-.004l-.37-.047c-.93-.12-1.87-.2-2.8-.24-.93-.05-1.87-.06-2.81-.04l-.03-.01c-.03-.01-.06-.01-.09-.02a.386.386 0 0 1-.17-.11c-.02-.03-.05-.07-.06-.1a.392.392 0 0 1 .01-.35.36.36 0 0 1 .07-.1c.03-.03.06-.06.1-.07.04-.02.08-.04.12-.04l.06-.01.39-.01c.93-.01 1.85.01 2.77.06.96.05 1.91.14 2.86.26l.1.01.06.01c.07.02.13.05.18.11.08.08.12.19.11.3 0 .04-.01.08-.03.11-.02.04-.04.07-.06.1s-.05.05-.09.08c-.03.02-.07.03-.11.04l-.06.01h-.03zm0-1.808c-.03 0-.03 0-.06-.004l-.37-.053a40.214 40.214 0 0 0-5.61-.372h-.03l-.06-.01a.464.464 0 0 1-.11-.045.424.424 0 0 1-.19-.292.487.487 0 0 1 .05-.233.409.409 0 0 1 .08-.096.397.397 0 0 1 .28-.11h.38c.96.006 1.92.043 2.87.115.93.07 1.85.173 2.77.304l.1.014c.03.005.04.005.06.013.04.012.08.03.11.053.04.022.07.05.09.082.02.032.04.067.06.105a.397.397 0 0 1-.09.417.358.358 0 0 1-.18.1c-.02.008-.03.008-.06.01l-.03.002zm0-1.808c-.03 0-.03 0-.06-.005l-.37-.06c-.93-.15-1.86-.26-2.8-.33-.93-.08-1.87-.12-2.81-.14h-.03L7 3.86a.408.408 0 0 1-.203-.13.68.68 0 0 1-.062-.1.586.586 0 0 1-.03-.12.421.421 0 0 1 .12-.33.392.392 0 0 1 .187-.1c.03-.01.06-.01.09-.01.126 0 .253.003.38.005.958.023 1.915.076 2.87.164.925.08 1.847.2 2.764.35l.09.01c.027 0 .034 0 .06.01.04.01.075.03.11.05.03.02.06.05.083.08.06.09.09.2.07.31-.01.04-.02.07-.04.11-.02.03-.05.07-.08.09a.4.4 0 0 1-.18.1h-.09zm-10.45-.34a.403.403 0 0 1-.4-.379c0-.037.01-.074.02-.11a.322.322 0 0 1 .06-.127.45.45 0 0 1 .11-.108c.05-.032.11-.05.16-.06l.32-.03c.44-.038.87-.07 1.3-.095h.04c.07.002.13.016.18.047.13.068.21.203.21.345 0 .037-.01.073-.02.108a.312.312 0 0 1-.06.126c-.03.05-.07.08-.11.11-.05.03-.1.05-.16.06-.07.01-.14.01-.21.02-.09.01-.19.01-.29.02l-.78.06-.19.02c-.04.01-.08.01-.13.01zm10.44-1.468l-.06-.006-.37-.066c-.93-.157-1.87-.284-2.81-.377-.93-.092-1.87-.15-2.81-.18h-.03l-.06-.012a.438.438 0 0 1-.11-.048.54.54 0 0 1-.09-.08c-.08-.092-.11-.22-.08-.338.01-.04.03-.08.05-.12.02-.04.05-.07.08-.1.05-.05.12-.08.19-.1.03-.01.06-.01.09-.01l.39.01c.93.04 1.85.1 2.77.2.96.1 1.91.24 2.86.4l.1.01c.03 0 .04 0 .06.01.04.01.08.03.11.05.09.07.15.17.16.28.01.04 0 .08-.01.12 0 .04-.02.08-.04.11s-.04.06-.07.09c-.05.05-.12.08-.19.09l-.06.01h-.03zM2.68 2.084a.387.387 0 0 1-.292-.129.41.41 0 0 1-.1-.225.396.396 0 0 1 .344-.429c.105-.01.21-.01.315-.02.434-.03.867-.05 1.3-.07h.032c.06.01.12.02.17.05.12.07.2.21.2.35 0 .04-.01.08-.02.11-.02.05-.04.09-.07.13-.03.04-.07.08-.12.1-.05.03-.11.05-.17.05-.07.01-.14.01-.22.01l-.3.02c-.27.02-.53.03-.79.05l-.2.01c-.05.01-.09.01-.13.01z"/></svg>