<svg viewBox="0 0 16 16" xmlns="http://www.w3.org/2000/svg" fill-rule="evenodd" clip-rule="evenodd" stroke-linejoin="round" stroke-miterlimit="1.414"><path d="M14.15 2.76l-.003 2.22H7.08a.266.266 0 0 0 0 .532l1.84-.01a5.246 5.246 0 0 1-.001 10.492L1.83 16l.003-2.25h7.09a3.003 3.003 0 1 0-.001-6.007l-1.848-.02a2.481 2.481 0 1 1-.002-4.963h7.07zM1.84 13.228l-.003-2.22H8.91a.258.258 0 0 0-.001-.515H7.08A5.246 5.246 0 0 1 7.08 0l7.067.002.004 2.233-7.07.003a3 3 0 0 0-3 3.004c0 1.66 1.35 3.003 3.01 3.003l1.85.02a2.481 2.481 0 0 1 0 4.962h-7.1z"/></svg>