<svg xmlns="http://www.w3.org/2000/svg" viewBox="0 0 16 16"><path d="M1.62 7.574c0-.248.202-.47.45-.47h4.645a.325.325 0 0 0 .324-.325v-.97a.325.325 0 0 0-.325-.325H1.62A1.62 1.62 0 0 0 0 7.103V8.9c0 .894.724 1.62 1.617 1.62h3.348c.248 0 .45.22.45.47v.855c0 .248-.202.472-.45.472H.324a.322.322 0 0 0-.323.323v.97c0 .178.144.323.323.323H5.42c.893 0 1.617-.724 1.617-1.617v-1.798c0-.893-.724-1.618-1.618-1.618H2.07c-.248 0-.45-.223-.45-.47v-.856zm14.058-2.086h-3.35V3.684h3.347a.324.324 0 0 0 .322-.324v-.97a.322.322 0 0 0-.323-.324h-3.346c-.893 0-1.617.725-1.617 1.618v1.804H9.16a.322.322 0 0 0-.323.323v.973c0 .178.144.323.322.323h1.55v5.301c0 .16.066.19.202.19.326 0 1.416-.607 1.416-1.125V7.106h3.35a.323.323 0 0 0 .322-.323V5.81a.323.323 0 0 0-.322-.322z"/></svg>