<svg viewBox="0 0 16 16" xmlns="http://www.w3.org/2000/svg" fill-rule="evenodd" clip-rule="evenodd" stroke-linejoin="round" stroke-miterlimit="1.414"><path d="M15.32 5.705c.213.405.376.85.488 1.337.113.487.176.996.19 1.528.014.53-.04 1.07-.16 1.61a8.07 8.07 0 0 1-.532 1.592 6.057 6.057 0 0 1-.96 1.48 7.86 7.86 0 0 1-1.405 1.267c-.52.37-1.16.69-1.9.94-.74.26-1.55.43-2.43.53l-.2-.48c.05-.01.11-.03.2-.06.09-.03.25-.09.48-.2a4.422 4.422 0 0 0 1.4-.94c.27-.25.49-.52.68-.81.19-.3.35-.66.48-1.1.13-.44.2-.91.2-1.41 0-.48-.06-.92-.19-1.34-.13-.42-.3-.77-.51-1.08-.21-.3-.45-.59-.7-.86-.25-.27-.51-.53-.76-.77-.26-.24-.49-.49-.71-.73-.21-.24-.39-.51-.52-.81-.13-.3-.2-.61-.2-.94 0-.59.24-1.1.7-1.52.47-.43 1.11-.64 1.93-.64.24 0 .48.02.73.07s.55.14.89.29c.34.15.66.34.97.57.31.23.64.56.98.97.34.413.65.89.93 1.43zM.68 10.295a5.551 5.551 0 0 1-.487-1.337 7.569 7.569 0 0 1-.19-1.528c-.015-.53.04-1.07.16-1.61a8.13 8.13 0 0 1 .53-1.592c.234-.518.554-1.01.96-1.48.41-.47.877-.893 1.406-1.267.52-.37 1.16-.69 1.9-.94A11.06 11.06 0 0 1 7.39 0l.2.473c-.042.01-.106.03-.19.054a5.37 5.37 0 0 0-.475.195 5.585 5.585 0 0 0-.675.358 4.7 4.7 0 0 0-.715.574 4.374 4.374 0 0 0-.675.81c-.19.293-.348.657-.477 1.093-.13.436-.194.904-.194 1.405 0 .473.06.917.2 1.333.13.417.3.775.51 1.076.21.31.45.59.7.87.25.28.51.53.76.77s.49.49.7.73c.22.25.39.52.52.81.13.3.2.61.2.94 0 .6-.24 1.11-.7 1.53-.47.43-1.11.64-1.93.64-.24 0-.48-.02-.73-.07s-.55-.14-.88-.29c-.34-.15-.66-.34-.98-.57-.31-.23-.64-.56-.98-.97-.34-.41-.65-.89-.93-1.43z" fill-rule="nonzero"/></svg>