<svg viewBox="0 0 16 16" xmlns="http://www.w3.org/2000/svg" fill-rule="evenodd" clip-rule="evenodd" stroke-linejoin="round" stroke-miterlimit="1.414"><path d="M.327 11.316c-.08.03-.125-.008-.098-.09l.22-.73c.02-.08.04-.22.03-.304L0 5.598a.152.152 0 0 1 .14-.166l15.716-1.055c.085-.005.15.06.143.146l-.64 6.954a.17.17 0 0 1-.17.146l-13.36-.86a.746.746 0 0 0-.3.052l-1.21.5zM7.53 7.474a.557.557 0 0 0-.42.162V6.89h-.335v1.556c0 .228.07.416.204.557.13.14.32.212.55.212.23 0 .42-.072.55-.212.13-.14.2-.33.2-.557v-.188c-.01-.52-.26-.784-.77-.784zm0 .326c.14 0 .246.034.318.106.07.07.108.19.108.355v.19c0 .14-.037.25-.114.33a.405.405 0 0 1-.312.12c-.133 0-.24-.04-.31-.12a.458.458 0 0 1-.11-.32v-.19c0-.16.036-.28.105-.35.07-.07.177-.1.315-.1zm2.424.048H8.897v-.965h-.345v2.313h.345V8.184h1.057v1.012h.347V6.883h-.34v.965zm2.964-.374a.559.559 0 0 0-.42.162V6.89h-.335v1.556c0 .228.07.416.204.557.135.14.32.212.554.212.24 0 .43-.072.56-.212a.76.76 0 0 0 .21-.557v-.188c0-.52-.26-.784-.76-.784zm0 .326c.14 0 .247.034.318.106.072.07.11.19.11.355v.19c0 .14-.038.25-.115.33-.07.08-.18.12-.31.12s-.24-.04-.31-.12a.477.477 0 0 1-.11-.32v-.19c0-.16.04-.28.11-.35.07-.07.18-.1.32-.1zm-6.737.63c0 .173-.02.297-.07.363-.05.064-.13.098-.25.098h-.01c-.12 0-.21-.03-.26-.09-.05-.07-.07-.19-.07-.36v-.91h-.33v.91c0 .28.05.49.16.61.1.12.26.18.47.19h.08c.22 0 .38-.06.48-.18.1-.12.16-.32.16-.6v-.91H6.2v.91zm5.39 0c0 .173-.02.295-.07.363-.05.064-.13.098-.25.098h-.01c-.12 0-.21-.03-.25-.09-.05-.07-.07-.19-.07-.36v-.91h-.33v.91c0 .28.05.49.16.61.1.12.26.18.48.19h.08c.22 0 .37-.06.47-.18.1-.12.16-.32.16-.6v-.91h-.33v.91h.01zm-8.04-.487l-.8-.268a.299.299 0 0 1-.12-.074c-.03-.02-.04-.05-.04-.09v-.05c0-.18.16-.28.48-.29h.03c.32 0 .49.09.51.26l.01.03h.35v-.03c-.02-.39-.3-.59-.85-.59h-.04c-.54.01-.81.22-.81.63v.06c0 .12.04.22.11.3.07.09.18.15.31.19l.79.27c.13.05.2.12.2.23v.05c0 .1-.05.18-.14.23-.1.06-.24.09-.42.09s-.32-.03-.42-.09a.254.254 0 0 1-.14-.23v-.04H2.2v.04c0 .21.08.37.24.49.16.12.38.18.66.18s.51-.05.662-.17a.57.57 0 0 0 .24-.48V8.5a.523.523 0 0 0-.12-.347.698.698 0 0 0-.316-.206zm1.14.835a.482.482 0 0 1-.11-.326v-.594h.36v-.34h-.36v-.63h-.34v1.564c0 .228.07.416.21.556.12.12.27.19.46.207l.04.002v-.323L4.9 8.89a.376.376 0 0 1-.224-.112zm8.93-1.352h.05v.122h.02v-.122h.04V7.41h-.11v.016zm.2.083l-.03-.1h-.03v.13h.02v-.11l.05.11h.02l.04-.12v.12h.02V7.4h-.03l-.04.1z" fill-rule="nonzero"/></svg>