<svg viewBox="0 0 16 16" xmlns="http://www.w3.org/2000/svg" fill-rule="evenodd" clip-rule="evenodd" stroke-linejoin="round" stroke-miterlimit="1.414"><path d="M8 0a8.001 8.001 0 0 0 0 16A8.001 8.001 0 0 0 8 0zm.998 7.11a.729.729 0 1 0 .457-1.292.728.728 0 0 0-.566 1.184l-.89.89L7.11 7a.729.729 0 1 0-1.292-.457.728.728 0 0 0 1.184.568l.89.89-.89.89a.727.727 0 0 0-1.184.57c0 .4.326.73.727.73.402 0 .728-.32.728-.72 0-.17-.06-.33-.162-.45l.89-.9.89.89a.734.734 0 0 0 .57 1.19c.4 0 .73-.32.73-.72a.717.717 0 0 0-1.17-.56L8.11 8 9 7.11z"/></svg>