<svg xmlns="http://www.w3.org/2000/svg" viewBox="0 0 16 16"><path d="M8 13.943h6.347c.4 0 .73-.225.73-.5v-1.28c-.167.167-.43.272-.73.272H1.653a1.05 1.05 0 0 1-.73-.27v1.277c0 .275.327.5.73.5H8z"/><path d="M8 14.912h6.962c.572 0 1.037-.344 1.037-.766a.638.638 0 0 0-.01-.098l-1.07-11.34a.726.726 0 0 0-.464-.563l.81 9.603v1.695c0 .38-.41.69-.92.69H1.654c-.506 0-.918-.312-.918-.69v-1.695l.808-9.603c-.226.088-.43.3-.463.564L.01 14.045a.42.42 0 0 0-.01.1c0 .42.464.767 1.037.767H8z"/><path d="M14.254 1.977l-.02-.21c0-.014 0-.025-.002-.04l-.003-.047c-.042-.336-.317-.593-.722-.593H2.49c-.402 0-.677.256-.72.59l-.002.05-.002.04-.02.21-.82 9.773c0 .275.326.5.728.5H14.35c.4 0 .726-.225.728-.5l-.824-9.773zm-3.79 6.203c-.177.466-.585.798-1.03 1-.483.222-1.023.308-1.554.316a6.865 6.865 0 0 1-1.678-.18 4.614 4.614 0 0 1-.827-.252c-.236-.104-.43-.338-.425-.603.005-.27.2-.494.446-.592.258-.103.506-.06.758.03.56.193 1.154.274 1.746.254.337-.01.926-.19.832-.712a.798.798 0 0 0-.23-.387 1.094 1.094 0 0 0-.41-.213c-.276-.076-.56-.132-.84-.193-.564-.123-.865-.217-1.365-.52-.44-.263-.535-.433-.603-.827-.088-.517.164-.926.58-1.24.93-.706 1.822-.682 2.92-.48.27.05.593.095.83.24.233.14.364.424.263.688-.094.25-.332.288-.59.26-.277-.03-.39-.103-.652-.152-.548-.1-.75-.184-1.277-.034-.21.06-.494.26-.387.522.09.217.42.287.618.34.542.145.965.312 1.504.47.506.147.89.428 1.205.873.28.397.34.944.17 1.396l-.002-.003z"/></svg>