<svg viewBox="0 0 16 16" xmlns="http://www.w3.org/2000/svg" fill-rule="evenodd" clip-rule="evenodd" stroke-linejoin="round" stroke-miterlimit="1.414"><path d="M16 13.836H0v-.03c2.208-.336 4.824-.887 7.847-1.65 3.245-.82 5.963-1.66 8.153-2.524v4.204zM0 9.386c.454-.025.98-.063 1.578-.113 1.255-.105 2.833-.26 4.732-.463 1.225-.128 2.25-.223 3.074-.284.823-.06 1.467-.094 1.936-.1.914.007 1.407.15 1.478.43.08.322-.412.718-1.48 1.187-1.068.47-2.59.954-4.564 1.453-2.01.507-4.262.944-6.754 1.312V9.386zm.69 1.967c.04 0 .076.016.107.047a.157.157 0 0 1 0 .222.157.157 0 0 1-.11.044.16.16 0 0 1-.112-.045.109.109 0 0 1-.034-.05c0-.01-.01-.03-.01-.06 0-.04.02-.08.05-.11.03-.03.07-.04.12-.04zm.54 0c.042 0 .078.016.11.047a.15.15 0 0 1 .044.11c0 .044-.015.08-.045.112a.178.178 0 0 1-.18.032.125.125 0 0 1-.05-.033c-.02-.01-.03-.03-.04-.05-.01-.01-.01-.03-.01-.06 0-.04.01-.08.04-.11s.07-.04.11-.04zm-.54-1.008c.04 0 .076.015.107.047a.15.15 0 0 1 .046.11c0 .043-.016.08-.046.11s-.067.046-.11.046a.15.15 0 0 1-.112-.046.153.153 0 0 1-.046-.11c0-.045.01-.082.04-.112s.07-.045.11-.045zm.54 0a.15.15 0 0 1 .11.047c.03.03.044.066.044.11a.15.15 0 0 1-.045.11c-.04.03-.07.046-.12.046s-.08-.015-.11-.046a.157.157 0 0 1-.05-.11c0-.045.01-.082.04-.112s.07-.045.11-.045zM16 3.065v3.21c-1.09.066-2.453.185-4.092.356-1.66.18-3.013.32-4.062.41-1.05.1-1.808.15-2.273.16-.908.02-1.393-.1-1.463-.37-.07-.3.47-.7 1.63-1.18 1.16-.49 2.7-.98 4.6-1.46 1.67-.42 3.56-.79 5.66-1.1zm-.57-.9c-2.17.404-4.418.9-6.743 1.487C5.057 4.568 2.162 5.48 0 6.382V2.165h15.43z"/></svg>