<svg viewBox="0 0 16 16" xmlns="http://www.w3.org/2000/svg" fill-rule="evenodd" clip-rule="evenodd" stroke-linejoin="round" stroke-miterlimit="1.414"><path d="M13.63 2.92c-.53-.3-1.377.182-1.89 1.076l-.932 1.62a2.042 2.042 0 0 0 .138 2.094l.027.04c.43.618 1.01 1.19 1.2 1.394a1.062 1.062 0 0 1-.486 1.747 1.055 1.055 0 0 1-1.333-1.15c.03-.23-.045-.61-.378-.98s-1.014.33-1.234 1.06l-.01.04c-.22.72-.36 1.35-.318 1.41a1.192 1.192 0 1 1-2.034 1.24c-.31-.58-.09-1.3.492-1.61l.08-.04c.043-.02.17-.32.278-.68l.198-.65a.667.667 0 0 0 .03-.11l.59-2.1-.63 1.29c-.074-.24-.198-.25-.467-.06-.16.12-.43.35-.56.44-.24.18-.45.52-.56.73-.06.13-.15.24-.27.33-.45.37-1.11.3-1.47-.15a1.047 1.047 0 0 1 .6-1.68c.27-.06 1.17-.61 1.71-1 .1-.07.18-.13.25-.2l1.45-1.1-1.26.68s-.13-.01-.28.01c-.46.05-.94.12-1.03.23-.05.07-.11.13-.19.18-.42.3-1 .21-1.31-.21-.3-.42-.2-1.01.22-1.31.17-.12.38-.18.57-.18.34.01 1.23.19 1.97.06l.19-.03c.75-.13 1.63-.78 1.99-1.44l.78-1.36c.43-.75.4-1.57-.07-1.84l-.87-.5c-.43-.24-1.13-.24-1.55 0L1.43 3.48c-.44.23-.79.83-.79 1.32v6.414c0 .49.35 1.09.776 1.33l5.825 3.28c.43.24 1.13.24 1.55 0l5.81-3.28c.43-.242.78-.84.78-1.33V4.79c0-.49-.35-1.088-.77-1.33l-.96-.542" fill-rule="nonzero"/></svg>