<svg viewBox="0 0 16 16" xmlns="http://www.w3.org/2000/svg" fill-rule="evenodd" clip-rule="evenodd" stroke-linejoin="round" stroke-miterlimit="1.414"><path d="M6.743 11.252c.043-.036.086-.073.127-.112a4.02 4.02 0 0 1-2.86 1.157h-.016a3.962 3.962 0 0 1-2.83-1.263A4.287 4.287 0 0 1 .16 9.24v-.004C-.242 7.77.116 6.12 1.23 4.966c1.564-1.622 4.048-1.662 5.638-.137l.81.85.362.38 2.818 2.99h.012c.03.03.06.05.08.08.57.52 1.44.5 1.99-.07.58-.6.6-1.58.03-2.19-.06-.07-.13-.13-.2-.18l-.16-.11a1.44 1.44 0 0 0-1.9.51c-.2.31-.27.68-.23 1.04L9.47 7.11 8.3 6c.19-.376.438-.73.743-1.046.07-.07.14-.14.212-.204a2.676 2.676 0 0 0-.127.112 4.02 4.02 0 0 1 2.86-1.157h.016a3.962 3.962 0 0 1 2.83 1.263c.488.52.822 1.138 1.004 1.795v.004c.403 1.465.045 3.117-1.07 4.27-1.564 1.622-4.048 1.662-5.638.137l-.81-.858-.362-.387-2.816-3-.003-.01c-.01 0-.01-.01-.01-.01-.03-.03-.06-.06-.08-.09-.57-.52-1.44-.51-1.99.07-.58.6-.6 1.58-.03 2.18.06.07.13.12.2.18l.16.1c.55.29 1.25.2 1.72-.29.07-.07.13-.15.18-.23.2-.31.27-.69.23-1.05l1.01 1.04L7.7 10c-.19.376-.438.73-.743 1.046-.07.07-.14.14-.212.204z"/></svg>