<svg viewBox="0 0 16 16" xmlns="http://www.w3.org/2000/svg" fill-rule="evenodd" clip-rule="evenodd" stroke-linejoin="round" stroke-miterlimit="1.414"><path d="M5.34.092L0 3.12v6.972c-.01 3.202 2.61 5.806 5.85 5.816a5.912 5.912 0 0 0 2.943-.77l4.325-2.457A5.252 5.252 0 0 0 16 8.021V.73L14.94.12l-4.336 2.42v7.582a4.147 4.147 0 0 1-.102.957 5.471 5.471 0 0 1-.383 1.11c-.34-.02-1.03-.21-1.59-.54-.28-.16-.61-.4-.91-.68-.2-.19-.37-.41-.52-.63a3.6 3.6 0 0 1-.39-.72c-.11-.26-.19-.52-.25-.79-.06-.28-.07-.57-.07-.85L6.4.7 5.34.095zM7.798 14.48a4.87 4.87 0 0 1-.9.274 4.747 4.747 0 0 1-1.903-.007 4.733 4.733 0 0 1-1.713-.718c-.66-.46-1-.86-1.294-1.29-.173-.26-.32-.53-.44-.81a4.817 4.817 0 0 1-.277-.89 5.11 5.11 0 0 1-.07-.96V3.72l4-2.414V7.98c0 2.537 1.88 4.653 4.3 5.165-.09.11-.16.22-.26.32a4.64 4.64 0 0 1-.71.585c-.25.17-.43.31-.71.428zm6.936-5.605c-.057.27-.14.535-.25.79-.292.637-.765 1.18-1.16 1.53-.81.733-1.816.96-1.932.96.242-.632.406-1.31.408-2.026V3.15l3.003-1.817.002 6.673c0 .287-.012.586-.07.864z" fill-rule="nonzero"/></svg>