<svg viewBox="0 0 16 16" xmlns="http://www.w3.org/2000/svg" fill-rule="evenodd" clip-rule="evenodd" stroke-linejoin="round" stroke-miterlimit="1.414"><path d="M13.86 4.33a.816.816 0 0 0-.738-1.42l-.093.05c-.54.297-4.19 2.85-3.78 3.138.41.286 2.9-.836 4.6-1.77m0 7.68c-1.71-.934-4.2-2.055-4.61-1.77-.41.288 3.23 2.842 3.77 3.138l.09.05c.34.1.71-.03.91-.342a.816.816 0 0 0-.18-1.077m1.5-4.678c-.04-.01-.07-.01-.11-.01-.62 0-5.04.48-4.82.93.22.44 2.94.66 4.88.66.4-.07.7-.44.67-.86a.81.81 0 0 0-.64-.74m-11.7 3.85c-.5 1.43-.97 2.1-2.05 2.1-.1 0-.47-.02-.49-.03a.742.742 0 0 0-.76.56c-.11.39.12.8.52.92.28.05.58.06.84.06 1.98 0 2.64-1.14 3.29-2.81l3.9-9.66c.14-.44-.11-.9-.54-1.04a.84.84 0 0 0-1.04.5l-2.72 7.2h-.04L1.66 1.71c-.18-.4-.66-.6-1.09-.44a.87.87 0 0 0-.522 1.09l3.606 8.8z" fill-rule="nonzero"/></svg>