<svg viewBox="0 0 16 16" xmlns="http://www.w3.org/2000/svg" fill-rule="evenodd" clip-rule="evenodd" stroke-linejoin="round" stroke-miterlimit="1.414"><path d="M8 16L0 8l8-8 8 8-8 8zM8 3.095A4.908 4.908 0 0 1 12.905 8 4.908 4.908 0 0 1 8 12.905 4.908 4.908 0 0 1 3.095 8 4.908 4.908 0 0 1 8 3.095zm0 .49A4.418 4.418 0 0 1 12.414 8c0 2.436-1.978 4.414-4.414 4.414S3.586 10.436 3.586 8 5.564 3.586 8 3.586zm.152 4.824c-.023.02-.05.047-.082.074a.7.7 0 0 1-.277.15.8.8 0 0 1-.22.028.517.517 0 0 1-.395-.157c-.1-.104-.15-.263-.15-.476 0-.2.048-.358.14-.476a.472.472 0 0 1 .394-.176.726.726 0 0 1 .366.094.863.863 0 0 1 .126.084c.034.026.066.054.098.083h.085v-.57A1.598 1.598 0 0 0 7.08 6.96a1.027 1.027 0 0 0-.373.195.994.994 0 0 0-.262.352 1.247 1.247 0 0 0-.097.52c0 .188.03.352.09.492a.92.92 0 0 0 .248.346c.11.095.24.164.38.205.145.044.307.066.482.066a1.448 1.448 0 0 0 .558-.108c.043-.02.087-.038.132-.057V8.41h-.086zm-2.06.674V7.637c0-.25-.083-.436-.25-.558-.167-.123-.434-.184-.8-.184-.15 0-.297.013-.443.04a3.215 3.215 0 0 0-.32.066v.514h.058c.1-.044.2-.08.305-.11.105-.028.196-.042.273-.042.173 0 .302.022.388.068.086.044.13.125.13.242v.012c-.192.012-.37.03-.536.052a1.54 1.54 0 0 0-.43.12.657.657 0 0 0-.27.232.694.694 0 0 0-.094.383c0 .193.06.35.185.477.123.126.28.19.466.19.1 0 .18-.01.235-.023a.93.93 0 0 0 .318-.155l.122-.103v.224h.663zM8.586 6.96v2.125h.663V7.577c.05-.033.1-.063.152-.09a.382.382 0 0 1 .16-.037c.07 0 .126.01.166.032.04.02.072.056.09.1.018.045.03.104.034.176.004.073.006.16.006.264v1.063h.663V7.577a.964.964 0 0 1 .162-.094.406.406 0 0 1 .318-.001.18.18 0 0 1 .088.1c.02.044.03.104.034.175.004.072.006.16.006.265v1.064h.664V7.702c0-.15-.015-.274-.045-.368a.668.668 0 0 0-.134-.243.49.49 0 0 0-.2-.14.663.663 0 0 0-.263-.05.696.696 0 0 0-.344.097 1.999 1.999 0 0 0-.36.273.584.584 0 0 0-.568-.369.672.672 0 0 0-.323.08c-.11.06-.212.132-.307.215V6.96h-.663zM5.43 8.53v-.44a4.99 4.99 0 0 0-.27.03.821.821 0 0 0-.203.047.293.293 0 0 0-.135.09.276.276 0 0 0-.047.163c0 .1.026.168.08.205.052.037.13.055.235.055a.514.514 0 0 0 .34-.15z"/></svg>