<svg xmlns="http://www.w3.org/2000/svg" viewBox="0 0 16 16"><path d="M13.66 6.018c-1.455-.62-3.41-1.02-5.5-1.13-.332-.02-.657-.028-.965-.032 1.544-1.885 3.2-3.15 4.29-3.19a.897.897 0 0 1 .542.13c.47.304.603 1.177.363 2.392a.308.308 0 0 0 .24.36.307.307 0 0 0 .36-.24c.298-1.52.08-2.564-.63-3.026a1.523 1.523 0 0 0-.9-.23c-1.367.052-3.295 1.533-5.06 3.814-.77.023-1.494.088-2.156.19-.43-1.93-.258-3.317.396-3.65a.753.753 0 0 1 .305-.082c.464-.035 1.105.265 1.806.847.13.107.324.092.43-.04.11-.13.09-.32-.038-.43-.836-.693-1.61-1.034-2.244-.987-.19.016-.37.065-.535.147-.793.404-1.116 1.55-.913 3.224.043.346.106.707.19 1.08C1.453 5.602.06 6.477 0 7.58c-.04.78.578 1.523 1.787 2.148a.306.306 0 0 0 .281-.545C1.103 8.687.585 8.127.613 7.613.65 6.894 1.798 6.154 3.787 5.76a18 18 0 0 0 .702 2.06c-.678 1.258-1.17 2.497-1.424 3.6-.377 1.642-.176 2.813.57 3.298.24.156.52.233.83.233.622 0 1.377-.307 2.23-.915a.305.305 0 1 0-.352-.497c-1.03.734-1.896.98-2.375.668-.507-.33-.618-1.295-.307-2.65.212-.923.604-1.953 1.138-3.012.134.292.273.584.42.875.95 1.864 2.113 3.485 3.272 4.563.924.86 1.783 1.308 2.49 1.308.234 0 .453-.05.652-.148.762-.39 1.094-1.473.932-3.05-.15-1.475-.707-3.272-1.57-5.066a.307.307 0 0 0-.554.265c1.797 3.734 1.923 6.792.914 7.306-1.06.54-3.614-1.57-5.593-5.453a19.983 19.983 0 0 1-.6-1.286c.227-.406.47-.813.732-1.22.264-.403.537-.792.816-1.163.088 0 .174-.004.262-.004.36 0 .75.008 1.156.03 4.353.228 7.316 1.705 7.255 2.888-.027.51-.617 1.025-1.617 1.413a.306.306 0 1 0 .22.572c1.27-.494 1.966-1.17 2.007-1.952.048-.888-.78-1.74-2.333-2.4v-.002zM5.385 6.3c-.18.277-.348.552-.51.83a15.679 15.679 0 0 1-.482-1.477c.475-.07.99-.125 1.54-.155-.187.26-.37.53-.548.806V6.3z"/><circle cx="8" cy="8" r=".917"/></svg>