<svg viewBox="0 0 16 16" xmlns="http://www.w3.org/2000/svg" fill-rule="evenodd" clip-rule="evenodd" stroke-linejoin="round" stroke-miterlimit="1.414"><path d="M13.967 14.832c-.22 0-.436-.058-.628-.17-.6-.344-.81-1.11-.46-1.707a4.604 4.604 0 0 0-3.99-6.899c-.22 0-.44-.06-.63-.17a1.247 1.247 0 1 1 .62-2.33c1.24 0 2.47.328 3.55.95a7.047 7.047 0 0 1 3.3 4.313c.49 1.83.24 3.74-.71 5.39-.22.38-.64.62-1.08.62zm-7.64.873a7.13 7.13 0 0 1-6.16-3.553 1.247 1.247 0 0 1 .46-1.704c.58-.335 1.376-.117 1.707.457a4.617 4.617 0 0 0 3.99 2.3c.8 0 1.596-.213 2.295-.616.69-.41 1.27-.99 1.68-1.69.11-.19.26-.35.46-.46.57-.34 1.37-.12 1.7.45.22.38.22.86-.01 1.25a7.124 7.124 0 0 1-2.6 2.6 7.15 7.15 0 0 1-3.55.95zm.496-11.073a3.757 3.757 0 0 0-.702 4.647 2.082 2.082 0 0 1-.91 2.92c.97.3 2.05.21 3-.34.6-.35 1.06-.83 1.38-1.38.18-.31.44-.58.77-.76.72-.42 1.59-.35 2.23.09-.22-.99-.84-1.89-1.79-2.43-.59-.34-1.24-.5-1.88-.5a2.077 2.077 0 0 1-2.07-2.26zm-2.508 6.94c-.442 0-.856-.24-1.08-.626a7.105 7.105 0 0 1-.952-3.55c0-3.915 3.187-7.1 7.105-7.1a1.25 1.25 0 0 1-.004 2.5 4.605 4.605 0 0 0-4.6 4.6c0 .806.212 1.6.616 2.3a1.25 1.25 0 0 1-1.084 1.874z"/></svg>