<svg viewBox="0 0 16 16" xmlns="http://www.w3.org/2000/svg" fill-rule="evenodd" clip-rule="evenodd" stroke-linejoin="round" stroke-miterlimit="1.414"><path d="M15.983 7.506A8 8 0 0 0 8.047 0h-.095a7.963 7.963 0 0 0-4.086 1.15 8.013 8.013 0 0 0-2.7 2.69A7.97 7.97 0 0 0 .017 8.498a7.935 7.935 0 0 0 1.15 3.663 8.057 8.057 0 0 0 2.684 2.69c1.2.72 2.6 1.14 4.09 1.15h.12a7.999 7.999 0 0 0 7.93-7.5c.01-.16.02-.33.02-.49 0-.16 0-.33-.01-.49zM8.007 10.43v2.555c.064 1.56-.38 1.822-.913 1.845-.024 0-.045.002-.067.003A6.902 6.902 0 0 1 7.016 1.17l.078.007c.533.03.977.286.913 1.845v2.554c-.007 1.05.597 2.05 1.24 2.428C8.605 8.38 8 9.257 8.007 10.43z" fill-rule="nonzero"/></svg>