<svg viewBox="0 0 16 16" xmlns="http://www.w3.org/2000/svg" fill-rule="evenodd" clip-rule="evenodd" stroke-linejoin="round" stroke-miterlimit="1.414"><path d="M15.31 5.21a6.18 6.18 0 0 0 .001-3.388 2.24 2.24 0 0 0-1.37-1.476 6.167 6.167 0 0 0-4.075 0c-.67.254-1.17.792-1.373 1.476a6.143 6.143 0 0 0 0 3.387c.203.68.704 1.22 1.373 1.47.657.23 1.34.34 2.035.34.7 0 1.38-.12 2.04-.35.67-.26 1.17-.79 1.38-1.48zm-1.964-1.694c0 .28-.042.56-.126.825-.114.37-.417.64-.79.71-.173.04-.35.05-.528.05-.178 0-.356-.01-.53-.05a1.031 1.031 0 0 1-.79-.7 2.712 2.712 0 0 1-.125-.82c0-.28.042-.56.126-.82.114-.36.417-.63.79-.7.17-.03.35-.05.53-.05.178 0 .356.02.527.05.373.07.676.34.79.7.084.27.126.55.126.83zM7.51 12.73a6.214 6.214 0 0 0-.001-3.387 2.275 2.275 0 0 0-1.38-1.476 6.16 6.16 0 0 0-4.08.004c-.67.26-1.17.79-1.37 1.48-.16.55-.24 1.12-.24 1.7 0 .57.08 1.15.23 1.7.2.69.7 1.23 1.37 1.48a6.16 6.16 0 0 0 4.07.01 2.28 2.28 0 0 0 1.37-1.47zm-1.967-1.693c0 .282-.042.56-.125.825-.115.36-.418.63-.79.704-.173.034-.35.05-.53.05-.177 0-.355-.016-.528-.05a1.036 1.036 0 0 1-.79-.704 2.76 2.76 0 0 1 0-1.651c.114-.36.417-.63.79-.7.17-.03.35-.05.53-.05.18 0 .356.02.528.05.372.08.675.35.79.71.083.27.125.55.125.83zm0-7.535h2.202a6.174 6.174 0 0 0-.236-1.68A2.273 2.273 0 0 0 6.13.346a6.148 6.148 0 0 0-4.067 0C1.393.6.893 1.138.69 1.822a6.19 6.19 0 0 0 0 3.387c.203.68.704 1.22 1.373 1.47a6.14 6.14 0 0 0 4.066-.01c.67-.25 1.17-.79 1.37-1.48.02-.1.05-.19.07-.29L5.5 3.95c-.02.13-.05.258-.09.384a1.038 1.038 0 0 1-.79.706c-.173.034-.35.05-.53.05-.177 0-.355-.016-.528-.05a1.036 1.036 0 0 1-.79-.704 2.76 2.76 0 0 1 0-1.655c.114-.36.417-.63.79-.7.17-.03.35-.05.53-.05.18 0 .356.02.528.05.38.08.68.35.79.71.09.26.13.54.13.81zm2.95 5.84a6.16 6.16 0 0 0-.238 1.694V16h2.202v-4.964c0-.282.042-.56.126-.825.114-.36.417-.63.79-.7.17-.03.35-.05.53-.05.178 0 .356.02.527.05.373.08.676.35.79.71a2.794 2.794 0 0 1 0 1.66c-.114.36-.417.63-.79.71-.173.04-.35.05-.528.05-.178 0-.356-.01-.53-.05a.776.776 0 0 1-.207-.06l.746 2.05c.7 0 1.38-.12 2.03-.35a2.27 2.27 0 0 0 1.38-1.47c.16-.54.24-1.11.24-1.69s-.08-1.15-.23-1.69c-.2-.68-.7-1.22-1.37-1.47a6.103 6.103 0 0 0-4.07 0c-.67.25-1.17.79-1.37 1.48z" fill-rule="nonzero"/></svg>