<svg viewBox="0 0 16 16" xmlns="http://www.w3.org/2000/svg" fill-rule="evenodd" clip-rule="evenodd" stroke-linejoin="round" stroke-miterlimit="1.414"><path d="M3.85 2.273c.286-.167.583-.315.893-.444.655-.28 1.33-.44 2.024-.51l.752.85-.35.88c-.68.13-1.32.38-1.92.74l-.13.08L5 2.71l-1.15-.44z"/><path d="M3.523 2.48l1.194.46.125 1.14A4.877 4.877 0 0 0 3.239 6.1L2.4 5.08l-1.37.29c.34-.736.8-1.394 1.375-1.974a7.112 7.112 0 0 1 1.112-.917zm7.857 8.036c.13-.216.235-.435.32-.66l1.292 1.567 2.17-.468a8.425 8.425 0 0 1-.442 1.005 7.521 7.521 0 0 1-1.765 2.24 7.06 7.06 0 0 1-2.515 1.406c-.018.006-.037.01-.055.017l-1.608-1.36.42-1.85.033-.014c.92-.4 1.638-1.02 2.15-1.89z"/><path d="M14.097 3.2a8.42 8.42 0 0 1 1.402 3.24c.18.94.21 1.886.08 2.835-.07.456-.17.9-.31 1.335l-2.17.466-1.3-1.572c.15-.578.17-1.18.04-1.806a3.84 3.84 0 0 0-.97-1.9l2.34-.28.87-2.318zM.885 5.72l1.4-.296.824 1.006a4.409 4.409 0 0 0-.19 2.254c.03.222.08.437.14.646l-1.48-.337-1.06 1.254A7.497 7.497 0 0 1 .33 8.544c.002-.967.18-1.9.538-2.8l.01-.025z"/><path d="M3.18 9.677c.213.562.526 1.076.94 1.544.31.36.66.65 1.042.88l-1.467.84.08 1.91a7.2 7.2 0 0 1-2.894-3.47c-.1-.25-.18-.5-.25-.75l1.09-1.28 1.48.34z"/><path d="M5.482 12.276c.315.157.653.277 1.012.36.805.186 1.59.155 2.353-.094L8.43 14.38l1.592 1.347a8.403 8.403 0 0 1-2.44.267 7.677 7.677 0 0 1-3.488-.956l-.08-1.922 1.468-.84zm8.39-9.37l-.875 2.325-2.41.29c-.07-.06-.142-.12-.218-.17-.79-.6-1.68-.95-2.67-1.05-.23-.02-.45-.02-.66-.02l.84-2.15L6.06.06C6.612 0 7.152-.01 7.7 0c.327.01.65.034.973.075.453.06.9.16 1.343.28.937.267 1.79.69 2.562 1.287.486.373.918.795 1.295 1.265z"/></svg>