<svg viewBox="0 0 16 16" xmlns="http://www.w3.org/2000/svg" fill-rule="evenodd" clip-rule="evenodd" stroke-linejoin="round" stroke-miterlimit="1.414"><path d="M10.98 14.265a1.458 1.458 0 1 1-1.457-1.458c.805 0 1.458.653 1.458 1.458zm-3.106-.113l-3.42.8s-.19.053-.258-.142c-.04-.118.06-.262.06-.262L7.69 8.94s.175-.265.507-.362c.275-.08.574.106.574.106l5.5 3.46s.24.097.23.288c-.01.193-.22.226-.22.226l-3.32.776a1.63 1.63 0 0 0-1.42-.82c-.87 0-1.59.68-1.65 1.538zM2.76 4.805l.997-3.466s.047-.2.25-.16c.123.02.2.18.2.18l3.22 5.73s.146.28.07.62c-.065.28-.374.45-.374.45L1.42 11.27s-.202.16-.36.055c-.16-.107-.09-.305-.09-.305l.97-3.37a1.652 1.652 0 0 0 .82-2.852zm.35 1.225a1.459 1.459 0 1 1-2.921.003 1.459 1.459 0 0 1 2.923-.003zm10.32-1.143l2.51 2.753s.138.14.002.293c-.083.093-.26.074-.26.074l-6.57-.26s-.315-.023-.562-.265c-.204-.2-.186-.552-.186-.552L8.7.44s-.033-.256.14-.336c.177-.08.307.085.307.085l2.186 2.39c-.123.23-.193.49-.193.77 0 .91.74 1.65 1.653 1.65.225 0 .44-.05.635-.13zm.823-1.526a1.458 1.458 0 1 1-2.917 0c0-.8.654-1.45 1.46-1.45.806 0 1.458.66 1.458 1.46z"/></svg>