<svg viewBox="0 0 296 346" xmlns="http://www.w3.org/2000/svg"><path d="M279.01 114.03c-16.78-9.45-37.87 2.88-41.25 5l-72.45 41.09c-10.697-8.496-25.936-8.135-36.219.858-10.282 8.992-12.67 24.048-5.675 35.781s21.374 16.793 34.175 12.024c12.8-4.769 20.366-18.003 17.979-31.453l72.25-41 .44-.27c4.75-3 15.77-7.49 20.92-4.58 3.71 2.09 5.83 9.09 6 19.4h-.09v90.63a23.74 23.74 0 0 1-11.84 20.5l-103.86 60a23.74 23.74 0 0 1-23.67 0l-103.86-60a23.74 23.74 0 0 1-11.84-20.5V121.56a23.74 23.74 0 0 1 11.84-20.5l94-54.25c8.943 10.26 23.931 12.684 35.653 5.767 11.722-6.918 16.844-21.21 12.186-33.998C169.041 5.789 155.926-1.86 142.501.383 129.076 2.626 119.16 14.122 118.91 27.73l-97 56A43.79 43.79 0 0 0 0 121.56v119.92a43.79 43.79 0 0 0 21.84 37.85l103.86 60a43.79 43.79 0 0 0 43.67 0l103.86-60a43.79 43.79 0 0 0 21.84-37.82v-87.18h.07c.51-20.45-4.96-34-16.13-40.3z"/></svg>