<svg viewBox="0 0 16 16" xmlns="http://www.w3.org/2000/svg" fill-rule="evenodd" clip-rule="evenodd" stroke-linejoin="round" stroke-miterlimit="1.414"><path d="M8 0c.857 0 6.5 3.257 6.928 4 .43.743.43 7.257 0 8-.43.743-6.07 4-6.928 4-.858 0-6.5-3.257-6.93-4-.427-.743-.427-7.257 0-8C1.5 3.257 7.143 0 8 0zm1.53 4.532a.173.173 0 0 0-.172.172v2.583H6.642V4.605h.467a.173.173 0 1 0 .088-.319L6.148 3.28a.201.201 0 0 0-.15-.073.175.175 0 0 0-.138.072L4.74 4.286a.171.171 0 0 0-.08.146.17.17 0 0 0 .17.172h.47l.004 6.69a.17.17 0 0 0 .17.172h.995a.172.172 0 0 0 .172-.17v-2.67h2.716v2.768H8.89a.17.17 0 0 0-.17.172c0 .062.032.116.08.146l1.052 1.007c.03.04.094.073.15.073.056 0 .106-.03.138-.073l1.12-1.007a.171.171 0 0 0 .08-.146.172.172 0 0 0-.17-.172h-.47l-.004-6.69a.171.171 0 0 0-.17-.173H9.53z"/></svg>