<svg xmlns="http://www.w3.org/2000/svg" viewBox="0 0 54.601902 47.901886"><g fill="#f7f787" fill-rule="evenodd" stroke-width="1.897" stroke-linecap="round"><path opacity=".407" paint-order="stroke fill markers" d="M6.482 19.345h3.303v3.3H6.482zM12.874 19.345h3.302v3.3h-3.302zM6.482 12.896h3.303v3.3H6.482zM12.874 12.896h3.302v3.3h-3.302zM19.31 19.345h3.303v3.3H19.31zM25.701 19.345h3.303v3.3H25.7zM19.31 12.896h3.303v3.3H19.31zM25.701 12.896h3.303v3.3H25.7zM6.482 6.482h3.303v3.3H6.482zM12.874 6.482h3.302v3.3h-3.302zM6.482.033h3.303v3.3H6.482zM12.874.033h3.302v3.3h-3.302zM19.31 6.482h3.303v3.3H19.31zM25.701 6.482h3.303v3.3H25.7zM19.31.033h3.303v3.3H19.31zM25.701.033h3.303v3.3H25.7zM32.08 19.311h3.303v3.3h-3.302zM38.472 19.311h3.303v3.3h-3.303zM32.08 12.863h3.303v3.3h-3.302zM38.472 12.863h3.303v3.3h-3.303zM44.908 19.311h3.303v3.3h-3.303zM51.3 19.311h3.302v3.3H51.3zM44.908 12.863h3.303v3.3h-3.303zM51.3 12.863h3.302v3.3H51.3zM32.08 6.45h3.303v3.3h-3.302zM38.472 6.45h3.303v3.3h-3.303zM32.08 0h3.303v3.3h-3.302zM38.472 0h3.303v3.3h-3.303zM44.908 6.45h3.303v3.3h-3.303zM51.3 6.45h3.302v3.3H51.3zM44.908 0h3.303v3.3h-3.303zM51.3 0h3.302v3.3H51.3zM0 19.345h3.303v3.3H0zM0 12.896h3.303v3.3H0zM0 6.482h3.303v3.3H0zM0 .033h3.303v3.3H0zM6.482 44.602h3.303v3.3H6.482zM12.874 44.602h3.302v3.3h-3.302zM6.482 38.152h3.303v3.3H6.482zM12.874 38.152h3.302v3.3h-3.302zM19.31 44.602h3.303v3.3H19.31zM25.701 44.602h3.303v3.3H25.7zM19.31 38.152h3.303v3.3H19.31zM25.701 38.152h3.303v3.3H25.7zM6.482 31.739h3.303v3.3H6.482zM12.874 31.739h3.302v3.3h-3.302zM6.482 25.29h3.303v3.3H6.482zM12.874 25.29h3.302v3.3h-3.302zM19.31 31.739h3.303v3.3H19.31zM25.701 31.739h3.303v3.3H25.7zM19.31 25.29h3.303v3.3H19.31zM25.701 25.29h3.303v3.3H25.7zM32.08 44.569h3.303v3.3h-3.302zM38.472 44.569h3.303v3.3h-3.303zM32.08 38.12h3.303v3.3h-3.302zM38.472 38.12h3.303v3.3h-3.303zM44.908 44.569h3.303v3.3h-3.303zM51.3 44.569h3.302v3.3H51.3zM44.908 38.12h3.303v3.3h-3.303zM51.3 38.12h3.302v3.3H51.3zM32.08 31.706h3.303v3.3h-3.302zM38.472 31.706h3.303v3.3h-3.303zM32.08 25.257h3.303v3.3h-3.302zM38.472 25.257h3.303v3.3h-3.303zM44.908 31.706h3.303v3.3h-3.303zM51.3 31.706h3.302v3.3H51.3zM44.908 25.257h3.303v3.3h-3.303zM51.3 25.257h3.302v3.3H51.3zM0 44.602h3.303v3.3H0zM0 38.152h3.303v3.3H0zM0 31.739h3.303v3.3H0zM0 25.29h3.303v3.3H0z"/></g></svg>