<svg viewBox="0 0 16 16" xmlns="http://www.w3.org/2000/svg" fill-rule="evenodd" clip-rule="evenodd" stroke-linejoin="round" stroke-miterlimit="1.414"><path d="M10.23 8.337l1.58 2.088c.132.173.14.46.017.64l-.08.118c-.12.18-.366.43-.543.554l-.19.134a.552.552 0 0 1-.637-.01l-2.09-1.58a.553.553 0 0 0-.627 0l-2.09 1.58c-.172.14-.46.14-.638.02l-.138-.09c-.18-.12-.427-.37-.55-.54l-.12-.17a.582.582 0 0 1 .012-.64l1.584-2.1c.13-.17.13-.45 0-.63L4.132 5.62a.578.578 0 0 1-.01-.638l.134-.19c.124-.176.373-.42.552-.543l.117-.08c.18-.13.468-.12.64.01l2.09 1.58c.173.13.456.13.628 0l2.09-1.59a.638.638 0 0 1 .653-.04l.22.13c.187.11.426.35.53.54l.08.14c.103.19.082.48-.05.66l-1.58 2.09c-.13.17-.13.45 0 .63zM8 0C3.58 0 0 3.582 0 8s3.58 8 8 8A8 8 0 0 0 8 0z" fill-rule="nonzero"/></svg>