<svg viewBox="0 0 16 16" xmlns="http://www.w3.org/2000/svg" fill-rule="evenodd" clip-rule="evenodd" stroke-linejoin="round" stroke-miterlimit="1.414"><path d="M5.382 16a1.896 1.896 0 0 1-1.83-2.394l-.01-.005.06-.15L8.266 1.34c.07-.18.037-.607.004-.845a.345.345 0 0 1 .005-.16L8.28.32l.004-.01V.305L8.29.293C8.362.098 8.59 0 8.963 0c.448 0 1.067.14 1.7.382.532.205 1.016.46 1.356.717.4.3.56.57.47.8l-.02.03-.01.01c-.03.04-.06.08-.1.11-.21.18-.51.49-.56.63L7.09 14.96l-.01-.004a1.916 1.916 0 0 1-1.695 1.04H5.38zm-1.458-2.478l-.014.033c-.298.8.108 1.704.91 2.012.18.07.367.102.558.102.647 0 1.22-.39 1.458-1l.018-.04 4.64-12.06c.097-.26.56-.68.652-.76l.01-.01c.008-.01.013-.01.013-.02 0-.04-.04-.18-.37-.43-.32-.24-.77-.48-1.27-.67C9.95.46 9.35.32 8.95.32c-.26 0-.35.054-.363.084V.43c.01.07.098.69-.023 1.01l-4.64 12.08zM9.89 5.85s-.642.74-1.228 1.006c-.587.266-1.02.196-1.547.504-.526.307-.792.735-.792.735L4.18 13.67c-.232.63.112 1.366.75 1.613.64.247 1.36-.08 1.608-.704L9.89 5.85zm-3.287 6.657c.07-.028.15 0 .177.07.028.07 0 .148-.07.176-.07.028-.15 0-.177-.07a.135.135 0 0 1 .07-.176zm-.676-1.202a.198.198 0 0 1-.265-.103.197.197 0 0 1 .102-.265.198.198 0 0 1 .266.102c.05.1.005.21-.103.26zm.19-.73a.387.387 0 0 1 .192-.505c.19-.083.41 0 .5.19.08.192 0 .416-.19.504a.39.39 0 0 1-.51-.19zM7.735 9.07c.102-.05.223 0 .265.1a.198.198 0 0 1-.102.266.198.198 0 0 1-.266-.103.195.195 0 0 1 .103-.265zm-.862-.92c.07-.028.15 0 .177.07.028.07 0 .15-.07.177-.07.028-.15 0-.177-.07a.137.137 0 0 1 .07-.177zM9.12.76c.066-.174.662-.108 1.33.15.666.256 1.153.606 1.086.78-.068.176-.664.11-1.33-.146C9.536 1.287 9.05.937 9.118.76z"/></svg>