<svg viewBox="0 0 16 16" xmlns="http://www.w3.org/2000/svg" fill-rule="evenodd" clip-rule="evenodd" stroke-linejoin="round" stroke-miterlimit="1.414"><path d="M15.37 4.886A8 8 0 0 0 11.114.629C10.127.21 9.08 0 8 0S5.873.212 4.886.63a7.981 7.981 0 0 0-2.543 1.713A7.99 7.99 0 0 0 .63 11.114 8 8 0 0 0 8 16.001c1.08 0 2.127-.21 3.114-.63a7.99 7.99 0 0 0 4.257-4.25c.42-.98.63-2.03.63-3.11s-.21-2.12-.63-3.11zM8 14.89A6.89 6.89 0 1 1 8 1.11a6.89 6.89 0 0 1 0 13.78zm2.162-12.143H5.838c-.615 0-1.134.217-1.556.65a2.14 2.14 0 0 0-.635 1.556v6.788c0 .3.09.54.267.73.178.18.41.28.7.28.297 0 .537-.09.72-.27.182-.18.273-.42.273-.72V4.72h1.427v7.02c0 .297.087.537.26.72.173.182.408.274.706.274s.533-.092.706-.274c.173-.183.26-.423.26-.72V4.72h1.427v7.02c0 .297.09.537.273.72.183.182.423.274.72.274.29 0 .522-.094.7-.282a.993.993 0 0 0 .267-.713V4.95c0-.606-.212-1.125-.635-1.557a2.091 2.091 0 0 0-1.556-.65z"/></svg>