<svg viewBox="0 0 16 16" xmlns="http://www.w3.org/2000/svg" fill-rule="evenodd" clip-rule="evenodd" stroke-linejoin="round" stroke-miterlimit="1.414"><path d="M7.973 11.87l5.307-2.264-4.7 4.828a9.588 9.588 0 0 0-.607-2.563zM16 7.413a29.5 29.5 0 0 0-10.058 1.28 9.691 9.691 0 0 1 1.69 2.414c2.695-1.5 6.43-3.415 8.368-3.687v-.01zm-8.383.183l.138-.04a26.591 26.591 0 0 0 3.015-1.104c.995-.39 1.93-.92 2.773-1.578a6.028 6.028 0 0 0 1.944-2.748c.08-.178.14-.366.177-.558C14.314 3.408 8.97 3.6 8.97 3.6l1.26-1.156A17.613 17.613 0 0 0 0 5.764a9.626 9.626 0 0 1 5.426 2.423c.724-.224 1.464-.384 2.19-.586v-.004z"/></svg>