<svg xmlns="http://www.w3.org/2000/svg" viewBox="0 0 16 16"><path d="M7.506 15.994c-.362-.032-.72-.077-.95-.12a8.05 8.05 0 0 1-3.727-1.763 11.3 11.3 0 0 1-.943-.94A8.042 8.042 0 0 1 .037 8.877c-.05-.416-.05-1.343 0-1.76C.26 5.26 1.04 3.648 2.343 2.343 3.648 1.04 5.263.26 7.12.037c.417-.05 1.345-.05 1.76 0a8.016 8.016 0 0 1 4.293 1.85c.23.19.75.712.942.94a8.032 8.032 0 0 1 1.85 4.29 7.3 7.3 0 0 1 .035.88c0 .435-.01.66-.035.88a7.999 7.999 0 0 1-1.85 4.292c-.19.228-.713.75-.942.94a8.023 8.023 0 0 1-4.272 1.847c-.26.03-1.19.055-1.394.037zM6.21 14.037c.37-.064.76-.22 1.08-.433.182-.122.577-.51.69-.68.225-.334.373-.754.4-1.13l.006-.07.307-.013c1.222-.054 2.268-.415 3.174-1.093 1.076-.806 1.732-1.855 1.922-3.075.05-.315.05-1.007 0-1.32-.155-.988-.628-1.88-1.38-2.603-.898-.863-1.99-1.373-3.263-1.525a7.975 7.975 0 0 0-1.433 0c-.935.11-1.744.4-2.472.884-1.198.796-1.936 1.88-2.155 3.16-.064.374-.073.852-.066 3.32l.008 2.423.045.198c.242 1.08 1.164 1.864 2.336 1.99.198.02.582.005.8-.033zm-.75-1.272c-.598-.096-1.05-.51-1.12-1.02-.013-.108-.018-.966-.013-2.69.007-2.477.01-2.534.05-2.747.058-.302.143-.553.282-.83.16-.325.34-.568.63-.862.702-.703 1.53-1.1 2.563-1.227a6.984 6.984 0 0 1 1.157 0c.103.012.297.045.432.072 1.26.254 2.393 1.136 2.86 2.23.275.644.3 1.498.068 2.197-.28.838-.995 1.615-1.908 2.07-.367.185-.74.305-1.215.393-.207.04-.314.043-1.192.052l-.964.01v.635c0 .887-.026.99-.334 1.3-.19.19-.38.302-.635.373a2.08 2.08 0 0 1-.66.042zm3.375-4.782c.894-.247 1.23-1.167.66-1.798a1.452 1.452 0 0 0-1.702-.313c-.35.172-.59.44-.672.756-.023.09-.03.25-.03.763v.65l.797-.007c.735-.007.808-.01.947-.05z"/></svg>