<svg viewBox="0 0 16 16" xmlns="http://www.w3.org/2000/svg" fill-rule="evenodd" clip-rule="evenodd" stroke-linejoin="round" stroke-miterlimit="1.414"><path d="M1.473 9.368c-.04.185-.06.374-.06.566 0 2.3 2.94 4.173 6.554 4.173 3.613 0 6.553-1.872 6.553-4.173 0-.183-.02-.364-.055-.54l-.01-.022a.324.324 0 0 1-.02-.11c-.2-.784-.745-1.497-1.533-2.072a.27.27 0 0 1-.084-.047c-.017-.013-.03-.028-.044-.043-1.198-.824-2.91-1.34-4.807-1.34-1.88 0-3.576.506-4.772 1.315a.263.263 0 0 1-.12.083c-.805.576-1.364 1.293-1.572 2.086 0 .038-.01.077-.025.114l-.005.01zM8 13.003c-1.198 0-2.042-.26-2.58-.8a.3.3 0 0 1 0-.422.314.314 0 0 1 .424 0c.42.42 1.125.63 2.155.63 1.03 0 1.73-.2 2.15-.62.11-.11.3-.11.42 0 .11.12.11.31 0 .43-.54.54-1.38.8-2.58.8zM5.592 7.945c-.61 0-1.12.51-1.12 1.12 0 .608.51 1.102 1.12 1.102.61 0 1.103-.494 1.103-1.102 0-.61-.494-1.12-1.103-1.12zm4.83 0c-.61 0-1.12.51-1.12 1.12 0 .608.51 1.102 1.12 1.102.61 0 1.103-.494 1.103-1.102 0-.61-.494-1.12-1.103-1.12zM13.46 6.88c.693.556 1.202 1.216 1.462 1.94a1.215 1.215 0 1 0-1.462-1.939zM1.812 6.64a1.215 1.215 0 0 0-.784 2.141c.268-.72.782-1.37 1.478-1.92a1.22 1.22 0 0 0-.694-.22zm6.155 8.067c-3.944 0-7.152-2.14-7.152-4.77 0-.183.016-.363.046-.54a1.82 1.82 0 0 1-.86-1.545 1.82 1.82 0 0 1 3.02-1.357c1.24-.796 2.91-1.297 4.75-1.33l1.21-3.69.27.063s.01 0 .01.002l2.82.663a1.494 1.494 0 0 1 2.87.584c0 .823-.67 1.492-1.49 1.492s-1.49-.67-1.49-1.49L9.4 2.18l-.98 2.99c1.77.07 3.37.57 4.57 1.35a1.813 1.813 0 1 1 2.119 2.91c.02.17.04.33.04.5-.01 2.63-3.21 4.77-7.16 4.77zM13.43 1.893a.895.895 0 0 0-.001 1.788c.49 0 .89-.4.89-.89s-.4-.89-.9-.89z"/></svg>