<svg xmlns="http://www.w3.org/2000/svg" viewBox="0 0 16 16"><path d="M8.007 1.732c-3.48 0-6.302 2.6-6.302 5.806 0 2.01.813 3.534 2.104 4.516h-.003l.156 2.028v.003c0 .01 0 .02.003.03v.004a.204.204 0 0 0 .296.146l.007-.004 1.93-1.117c.57.132 1.178.2 1.807.2 3.48 0 6.302-2.6 6.302-5.807 0-3.206-2.823-5.806-6.303-5.806zM6.926.48c.35-.044.707-.07 1.07-.07.253 0 .5.013.746.035l.038-.41a8.865 8.865 0 0 0-1.911.038l.056.408zm2.531.063c.61.11 1.19.29 1.74.53l.168-.378A8.42 8.42 0 0 0 9.53.137l-.073.406zM15.57 7.58a6.633 6.633 0 0 1-.27 1.77l.393.117a7.04 7.04 0 0 0 .288-1.888h-.41zM4.496 1.21A8.032 8.032 0 0 1 6.22.608L6.13.205a8.244 8.244 0 0 0-1.814.634l.18.37zm9.099.932a7.955 7.955 0 0 0-1.552-1.115l-.207.36c.54.297 1.04.655 1.482 1.064l.277-.308zM10.1 14.7c.63-.16 1.23-.393 1.79-.687l-.21-.355a7.812 7.812 0 0 1-1.68.645l.1.398zM2.45 2.67c.42-.425.898-.8 1.42-1.117L3.653 1.2a7.8 7.8 0 0 0-1.297.982c-.068.063-.134.128-.2.193l.293.294zm12.988 7.52l-.38-.158a6.938 6.938 0 0 1-.902 1.555l.33.246a7.375 7.375 0 0 0 .95-1.643zm-1.622-7.235c.404.45.748.95 1.023 1.485l.37-.183a7.382 7.382 0 0 0-1.085-1.578l-.31.275zm1.704 2.002l-.38.163c.21.552.348 1.135.403 1.74l.41-.04a6.965 6.965 0 0 0-.433-1.863zM4.256 15.233l-.645.283-.222-.684-.39.128.292.898c.02.055.06.1.112.124a.201.201 0 0 0 .166 0l.855-.374-.167-.375zm2.549-.796c-.052-.01-.105-.018-.158-.027l-.31-.052a.213.213 0 0 0-.115.015l-1.3.568.18.37 1.23-.536c.083.014.166.028.247.04.046.01.093.017.14.025l.085-.403zm2.485.013c-.422.07-.854.105-1.295.105-.182 0-.35-.01-.515-.025l-.012.41c.167.016.34.026.527.026.466 0 .922-.038 1.366-.11l-.07-.405zM1.01 4.744c.247-.55.568-1.065.95-1.534l-.313-.272A7.274 7.274 0 0 0 .642 4.556l-.007.014.375.174zm12.677 7.396c-.408.434-.872.82-1.38 1.152l.226.343a7.98 7.98 0 0 0 1.46-1.22l-.306-.275zM.646 9.7A8.84 8.84 0 0 1 .43 7.92H.02a9.2 9.2 0 0 0 .23 1.895L.646 9.7zM.358 5.283a7.023 7.023 0 0 0-.34 1.875l.41.02c.028-.615.14-1.21.325-1.774l-.395-.12zm2.799 8.84l-.393-1.21a.198.198 0 0 0-.07-.098 8.197 8.197 0 0 1-.44-.372l-.282.298c.13.122.272.242.42.36l.373 1.145.392-.122zm-1.403-2.195a4.972 4.972 0 0 1-.904-1.543l-.382.152a5.347 5.347 0 0 0 .979 1.665l.307-.274z"/></svg>