<svg viewBox="0 0 16 16" xmlns="http://www.w3.org/2000/svg" fill-rule="evenodd" clip-rule="evenodd" stroke-linejoin="round" stroke-miterlimit="1.414"><path d="M8 0a8 8 0 1 0 0 16A8 8 0 0 0 8 0zm.28 12.906a.303.303 0 0 1-.224.16l-.746.106a2.56 2.56 0 0 0 1.719-.093l-.63-.42-.12.24zm2.93-1.303l-1.153-.114a.547.547 0 0 1-.136-.05l-.77-.53-1.02.21c-.03 0-.05.01-.08 0l-1.11-.09-.66.59c-.03.03-.07.05-.11.06l-1.19.34c-.05.01-.1.01-.15 0l.7.79 2.33-.33.2-.41c.04-.08.11-.13.19-.16.08-.02.17-.01.24.04l.88.59 1.96-.45.42-.67-.35.14c-.05.01-.09.02-.14.02zm-5.29-.448l.703-.63a.289.289 0 0 1 .22-.075l1.193.09 1.11-.235c.08-.016.16 0 .228.046l.817.56.84.08c.09-.2.16-.42.21-.64h-.04l-2.28-.31a.295.295 0 0 1-.24-.19l-.41-1.18c-.05-.03-.31-.01-.43.05l-.42 1.14c-.03.1-.11.17-.21.19l-2.23.52-.04.01c.08.27.19.53.32.79l.68-.19zm-1.85-3.3l.28 1.627.62.47 1.943-.45.39-1.098a.314.314 0 0 1 .107-.14c.033-.023.335-.234.71-.234.44 0 .632.284.653.317l.392 1.118 1.987.272.617-.427.41-1.423c-2.65-.6-5.46-.61-8.11-.032zm2 1.22h-.18c-.283 0-.465-.012-.626.073.006-.01.077-.166.33-.23a.758.758 0 0 1-.05-.27c-.017-.457.266-.833.558-.837.292 0 .495.37.5.83.004.46-.24.43-.533.44zM10.062 7.7c.293-.01.56.35.594.81a.588.588 0 0 1-.034.286c.27-.032.333.153.335.163-.197-.1-.413.02-.804.03-.295.01-.537.01-.555-.45-.017-.46.173-.84.464-.85zm-3.92.4a.147.147 0 0 0-.145.153c.002.083.072.15.154.145a.152.152 0 0 0 .15-.154.147.147 0 0 0-.15-.145zm3.897.186c.08 0 .15-.07.14-.15 0-.083-.07-.15-.15-.147-.09 0-.15.07-.15.15 0 .08.07.15.15.14zm-2 5.584c.85 0 1.66-.35 2.32-.934l1.16-.27a.297.297 0 0 0 .18-.132l.94-1.52a.293.293 0 0 0-.02-.345c-.09-.1-.22-.14-.34-.09l-.59.22c.07-.25.13-.51.17-.77v-.09l.31-.22c.06-.05.1-.11.12-.18l.43-1.53.03.01h.01l.03.01c.13.03.26-.02.33-.14.15-.26.24-.59.28-.97.04-.41.01-.75-.09-1.01a.286.286 0 0 0-.17-.17c-.26-.11-.52-.2-.78-.29-.39-1.86-2.23-3.24-4.37-3.24S4.01 3.59 3.62 5.44c-.268.09-.53.18-.788.29a.273.273 0 0 0-.16.17c-.1.25-.127.59-.086 1 .035.39.13.71.28.97.05.09.15.15.25.15.03 0 .053 0 .08-.01l.226-.06.286 1.69c.01.08.05.15.114.19l.34.26a.478.478 0 0 0 0 .1c.067.36.18.73.337 1.07l-.74-.31a.31.31 0 0 0-.36.1.3.3 0 0 0 .02.37L5.1 13.3c.06.07.14.1.225.1h.04l.83-.116c.53.34 1.14.546 1.798.547H8zm.93-8.165v.738c0 .163-.14.296-.3.296H7.46a.301.301 0 0 1-.293-.3V5.7c0-.143.1-.26.234-.29v-.44h-.55a.294.294 0 0 1-.29-.297v-.976c0-.164.14-.296.3-.296H9.3c.164 0 .296.14.296.3v.98c0 .17-.132.3-.295.3h-.55v.45c.14.03.24.15.24.29zm3.19.307h-.01c-.07 0-.13-.02-.18-.057-.77-.24-1.57-.41-2.38-.504a.28.28 0 0 1-.26-.32.29.29 0 0 1 .33-.26c.7.09 1.39.22 2.06.41-.47-1.42-1.97-2.44-3.7-2.44-1.73 0-3.23 1.02-3.7 2.45.61-.17 1.24-.29 1.87-.38.17-.02.31.1.33.26a.3.3 0 0 1-.26.33c-.76.1-1.5.27-2.22.49-.03.02-.06.03-.1.03-.25.08-.49.17-.74.27-.03.14-.04.34-.01.63.02.21.06.38.12.54 3.04-.77 6.34-.77 9.39 0 .05-.15.09-.33.11-.53.02-.25.02-.46-.02-.62-.23-.09-.45-.17-.68-.25zM8.89 4.378h.1v-.386H7.15v.386h.1a.293.293 0 0 1 .294-.285H7.7c.164 0 .297.133.297.296V5.7c0 .142-.1.26-.24.29v.153h.62V5.99a.294.294 0 0 1-.236-.29V4.39c0-.164.14-.297.3-.297h.16c.16 0 .29.127.3.285z"/></svg>