<svg viewBox="0 0 16 16" xmlns="http://www.w3.org/2000/svg" fill-rule="evenodd" clip-rule="evenodd" stroke-linejoin="round" stroke-miterlimit="1.414"><path d="M15.213 6.352c.187-.804.783-1.61.783-1.61h-2.674c-1.5-.97-3.32-1.483-5.34-1.483-2.093 0-3.984.52-5.475 1.5H0s.59.79.78 1.59A4 4 0 0 0 .002 8.72a4.01 4.01 0 0 0 4.007 4.005c1.26 0 2.38-.59 3.12-1.503l.85 1.277.86-1.29a4.009 4.009 0 0 0 4.53 1.28 4.024 4.024 0 0 0 2.37-5.15c-.14-.37-.32-.7-.54-.99zm-2.113 5.38a3.17 3.17 0 0 1-3.772-1.245c-.133-.2-.25-.415-.335-.647a3.19 3.19 0 0 1-.172-.81c-.05-.554.03-1.116.27-1.635a3.204 3.204 0 0 1 5.91.23 3.206 3.206 0 0 1-1.89 4.108zM6.656 10.51a3.2 3.2 0 0 1-2.648 1.408c-1.764 0-3.2-1.437-3.2-3.197s1.437-3.2 3.2-3.2a3.206 3.206 0 0 1 3.198 3.2c0 .11-.02.21-.032.32a3.2 3.2 0 0 1-.518 1.48zm-4.68-1.83c0 1.093.89 1.98 1.98 1.98a1.98 1.98 0 1 0-1.979-1.98zm8.03 0a1.98 1.98 0 0 0 1.978 1.98 1.98 1.98 0 0 0 0-3.956c-1.09 0-1.98.886-1.98 1.976zm-7.347 0c0-.714.58-1.295 1.29-1.295s1.3.582 1.3 1.295a1.3 1.3 0 1 1-2.6 0zm8.02 0a1.295 1.295 0 0 1 2.59 0 1.3 1.3 0 1 1-2.6 0zm-2.7-4.722c1.44 0 2.74.26 3.88.775-.43.012-.85.087-1.27.24a3.932 3.932 0 0 0-2.25 2.083c-.21.44-.32.906-.36 1.377a4.016 4.016 0 0 0-3.92-3.718c1.14-.49 2.46-.757 3.89-.757z"/></svg>