<svg viewBox="0 0 16 16" xmlns="http://www.w3.org/2000/svg" fill-rule="evenodd" clip-rule="evenodd" stroke-linejoin="round" stroke-miterlimit="1.414"><path d="M8 0a8 8 0 1 0 0 16A8 8 0 0 0 8 0zm4.39 9.77c-.99 0-1.794-.804-1.794-1.793 0-.99.805-1.794 1.794-1.794.99 0 1.794.805 1.794 1.794 0 .99-.805 1.793-1.794 1.793zm-7.37-.008a.246.246 0 0 1-.177-.077L3.48 8.325 2.112 9.69a.242.242 0 0 1-.172.072.245.245 0 0 1-.171-.42l1.36-1.367L1.77 6.61a.232.232 0 0 1-.075-.174.245.245 0 0 1 .417-.174l1.37 1.366 1.365-1.364a.241.241 0 0 1 .174-.072c.14 0 .25.11.25.244 0 .065-.02.126-.07.172l-1.37 1.37L5.2 9.345a.245.245 0 0 1-.173.417zm5.344-3.06c-.53.067-.587.317-.587.936v1.858a.245.245 0 0 1-.49 0v-3.02c0-.136.107-.244.242-.244.11 0 .21.083.23.193.18-.14.4-.212.62-.212h.07c.13 0 .24.11.24.245s-.11.235-.25.24c0 0-.06 0-.11.005zm-2.06 1.47H5.75a1.203 1.203 0 0 0 .059.244c.13.354.51.85 1.22.86.22-.002.42-.057.6-.153.14-.08.26-.18.35-.285.03-.038.06-.075.08-.112.12-.153.27-.124.36-.055.11.09.12.26.03.38l-.01.01c-.14.18-.29.33-.46.44-.17.11-.35.19-.54.23-.22.06-.43.07-.65.04-.73-.09-1.34-.62-1.52-1.34a1.54 1.54 0 0 1-.06-.43c0-.57.28-1.13.75-1.47.59-.41 1.39-.44 2-.05.42.27.69.68.79 1.18.05.28-.14.53-.49.54zM12.39 6.69a1.288 1.288 0 0 0 0 2.574 1.289 1.289 0 0 0 0-2.575zm0 1.73a.444.444 0 1 1 0-.89.444.444 0 0 1 0 .891zM7.03 6.685c-.607 0-1.115.415-1.257.977v.02H8.29a1.297 1.297 0 0 0-1.26-.996z"/></svg>