<svg xmlns="http://www.w3.org/2000/svg" viewBox="0 0 41.143208 41.143204"><path d="M20.702.044l-7.4 20.264-.028.078c1.142-.287 2.168-.776 4.85.087 1.79.594 2.902.298 4.095-.002 1.841-.707 3.499-.593 5.004.007l-.034-.014c1.246.27 2.328.625 4.147.01.933-.354 1.82-.505 2.666-.492h.01a6.928 6.928 0 0 1 2.385.485c1.167.27 2.643.516 4.202.09v.008h.54a.222.222 0 0 0-.063-.129L20.723.063a.1.1 0 0 0-.021-.019zm-5.188 20.373h.005c.547.008 1.227.115 2.117.377h.002c-.891-.263-1.572-.371-2.12-.377zm6.499.556zm5.672.055h.003a11.308 11.308 0 0 0-.003 0zm-9.043.05h.002c.11.026.222.054.328.073-.107-.02-.219-.047-.33-.073z" fill="#fff" fill-rule="evenodd" stroke-width=".76" stroke-linecap="round" stroke-linejoin="round" paint-order="stroke fill markers"/><path d="M20.575 0a.22.22 0 0 0-.16.065L.064 20.44a.221.221 0 0 0-.063.128h.558l.022.014c.096.035.185.064.273.09 1.25.14 2.47-.145 3.579-.34 2.173-.454 3.19-.212 4.467.14l.015.004.016.009c1.123.492 2.485.392 3.985-.014h.013l.013-.004c.115-.022.225-.051.336-.079l.029-.077 7.4-20.265a.221.221 0 0 0-.13-.046z" style="line-height:normal;font-variant-ligatures:normal;font-variant-position:normal;font-variant-caps:normal;font-variant-numeric:normal;font-variant-alternates:normal;font-feature-settings:normal;text-indent:0;text-align:start;text-decoration-line:none;text-decoration-style:solid;text-decoration-color:#000;text-transform:none;text-orientation:mixed;shape-padding:0;isolation:auto;mix-blend-mode:normal" color="#000" font-weight="400" font-family="sans-serif" white-space="normal" overflow="visible" fill="#e1e1e1" stroke-width=".253"/><path d="M20.59 41.143a.22.22 0 0 1-.159-.065L.078 20.704a.22.22 0 0 1-.062-.129h.557v.007c.105.04.2.07.296.098 1.249.14 2.47-.145 3.578-.34 2.174-.455 3.191-.212 4.467.14l.015.004.016.009c1.123.491 2.486.391 3.985-.014h.014l.012-.004.216-.05.15.408 7.399 20.264a.22.22 0 0 1-.13.046z" style="line-height:normal;font-variant-ligatures:normal;font-variant-position:normal;font-variant-caps:normal;font-variant-numeric:normal;font-variant-alternates:normal;font-feature-settings:normal;text-indent:0;text-align:start;text-decoration-line:none;text-decoration-style:solid;text-decoration-color:#000;text-transform:none;text-orientation:mixed;shape-padding:0;isolation:auto;mix-blend-mode:normal" color="#000" font-weight="400" font-family="sans-serif" white-space="normal" overflow="visible" fill="#4b4b4b" stroke-width=".253"/><path d="M34.005 19.985c-.846-.014-1.732.139-2.665.493-1.82.615-2.902.26-4.148-.01l.034.014c-1.505-.6-3.164-.714-5.004-.007-1.194.3-2.306.595-4.095.001-1.475-.58-3.28-.716-4.955-.052l.15.408c-.2 4.787 2.664 11.556 7.393 20.248a.757.757 0 0 0 .012-.01L41.08 20.695a.22.22 0 0 0 .063-.13h-.54v-.008c-1.559.427-3.036.18-4.203-.09a6.909 6.909 0 0 0-2.385-.484z" fill="#646464" fill-rule="evenodd" stroke-width=".76" stroke-linecap="round" stroke-linejoin="round" paint-order="stroke fill markers"/><path style="line-height:normal;font-variant-ligatures:normal;font-variant-position:normal;font-variant-caps:normal;font-variant-numeric:normal;font-variant-alternates:normal;font-feature-settings:normal;text-indent:0;text-align:start;text-decoration-line:none;text-decoration-style:solid;text-decoration-color:#000;text-transform:none;text-orientation:mixed;shape-padding:0;isolation:auto;mix-blend-mode:normal" d="M20.59 41.143a.22.22 0 0 1-.159-.065L.078 20.704a.22.22 0 0 1-.062-.129h.557v.007c.105.04.2.07.296.098 1.249.14 2.47-.145 3.578-.34 2.174-.455 3.191-.212 4.467.14l.015.004.016.009c1.123.491 2.486.391 3.985-.014h.014l.012-.004.216-.05.15.408 7.399 20.264a.22.22 0 0 1-.13.046z" color="#000" font-weight="400" font-family="sans-serif" white-space="normal" overflow="visible" fill="#4b4b4b" stroke-width=".253"/></svg>
