<svg xmlns="http://www.w3.org/2000/svg" style="display:none;"><symbol viewBox="0 0 24 24" id="icon-github"><title>GitHub icon</title><path d="M12 .297c-6.63 0-12 5.373-12 12 0 5.303 3.438 9.8 8.205 11.385.6.113.82-.258.82-.577 0-.285-.01-1.04-.015-2.04-3.338.724-4.042-1.61-4.042-1.61C4.422 18.07 3.633 17.7 3.633 17.7c-1.087-.744.084-.729.084-.729 1.205.084 1.838 1.236 1.838 1.236 1.07 1.835 2.809 1.305 3.495.998.108-.776.417-1.305.76-1.605-2.665-.3-5.466-1.332-5.466-5.93 0-1.31.465-2.38 1.235-3.22-.135-.303-.54-1.523.105-3.176 0 0 1.005-.322 3.3 1.23.96-.267 1.98-.399 3-.405 1.02.006 2.04.138 3 .405 2.28-1.552 3.285-1.23 3.285-1.23.645 1.653.24 2.873.12 3.176.765.84 1.23 1.91 1.23 3.22 0 4.61-2.805 5.625-5.475 5.92.42.36.81 1.096.81 2.22 0 1.606-.015 2.896-.015 3.286 0 .315.21.69.825.57C20.565 22.092 24 17.592 24 12.297c0-6.627-5.373-12-12-12"/></symbol><symbol viewBox="0 0 16 16" id="icon-googlehangouts"><title>googlehangouts</title><path d="M8 0C4.133 0 1 3.133 1 7c0 3.667 3.333 6.667 7 6.667V16c4.233-2.067 7-5.467 7-9 0-3.867-3.133-7-7-7zM4.667 8h1.666v1.667c.734 0 1.334-.734 1.334-1.667V5h-3v3zm4-3v3h1.666v1.667c.734 0 1.334-.734 1.334-1.667V5h-3z"/></symbol><symbol viewBox="0 0 54.601902 47.901886" id="icon-heading-prefix"><title>heading-prefix</title><g fill-rule="evenodd" stroke-width="1.897" stroke-linecap="round"><path opacity=".407" paint-order="stroke fill markers" d="M6.482 19.345h3.303v3.3H6.482zM12.874 19.345h3.302v3.3h-3.302zM6.482 12.896h3.303v3.3H6.482zM12.874 12.896h3.302v3.3h-3.302zM19.31 19.345h3.303v3.3H19.31zM25.701 19.345h3.303v3.3H25.7zM19.31 12.896h3.303v3.3H19.31zM25.701 12.896h3.303v3.3H25.7zM6.482 6.482h3.303v3.3H6.482zM12.874 6.482h3.302v3.3h-3.302zM6.482.033h3.303v3.3H6.482zM12.874.033h3.302v3.3h-3.302zM19.31 6.482h3.303v3.3H19.31zM25.701 6.482h3.303v3.3H25.7zM19.31.033h3.303v3.3H19.31zM25.701.033h3.303v3.3H25.7zM32.08 19.311h3.303v3.3h-3.302zM38.472 19.311h3.303v3.3h-3.303zM32.08 12.863h3.303v3.3h-3.302zM38.472 12.863h3.303v3.3h-3.303zM44.908 19.311h3.303v3.3h-3.303zM51.3 19.311h3.302v3.3H51.3zM44.908 12.863h3.303v3.3h-3.303zM51.3 12.863h3.302v3.3H51.3zM32.08 6.45h3.303v3.3h-3.302zM38.472 6.45h3.303v3.3h-3.303zM32.08 0h3.303v3.3h-3.302zM38.472 0h3.303v3.3h-3.303zM44.908 6.45h3.303v3.3h-3.303zM51.3 6.45h3.302v3.3H51.3zM44.908 0h3.303v3.3h-3.303zM51.3 0h3.302v3.3H51.3zM0 19.345h3.303v3.3H0zM0 12.896h3.303v3.3H0zM0 6.482h3.303v3.3H0zM0 .033h3.303v3.3H0zM6.482 44.602h3.303v3.3H6.482zM12.874 44.602h3.302v3.3h-3.302zM6.482 38.152h3.303v3.3H6.482zM12.874 38.152h3.302v3.3h-3.302zM19.31 44.602h3.303v3.3H19.31zM25.701 44.602h3.303v3.3H25.7zM19.31 38.152h3.303v3.3H19.31zM25.701 38.152h3.303v3.3H25.7zM6.482 31.739h3.303v3.3H6.482zM12.874 31.739h3.302v3.3h-3.302zM6.482 25.29h3.303v3.3H6.482zM12.874 25.29h3.302v3.3h-3.302zM19.31 31.739h3.303v3.3H19.31zM25.701 31.739h3.303v3.3H25.7zM19.31 25.29h3.303v3.3H19.31zM25.701 25.29h3.303v3.3H25.7zM32.08 44.569h3.303v3.3h-3.302zM38.472 44.569h3.303v3.3h-3.303zM32.08 38.12h3.303v3.3h-3.302zM38.472 38.12h3.303v3.3h-3.303zM44.908 44.569h3.303v3.3h-3.303zM51.3 44.569h3.302v3.3H51.3zM44.908 38.12h3.303v3.3h-3.303zM51.3 38.12h3.302v3.3H51.3zM32.08 31.706h3.303v3.3h-3.302zM38.472 31.706h3.303v3.3h-3.303zM32.08 25.257h3.303v3.3h-3.302zM38.472 25.257h3.303v3.3h-3.303zM44.908 31.706h3.303v3.3h-3.303zM51.3 31.706h3.302v3.3H51.3zM44.908 25.257h3.303v3.3h-3.303zM51.3 25.257h3.302v3.3H51.3zM0 44.602h3.303v3.3H0zM0 38.152h3.303v3.3H0zM0 31.739h3.303v3.3H0zM0 25.29h3.303v3.3H0z"/></g></symbol><symbol viewBox="0 0 16 16" id="icon-instagram"><title>instagram</title><path d="M8 0C5.827 0 5.555.01 4.702.048 3.85.088 3.27.222 2.76.42a3.908 3.908 0 0 0-1.417.923c-.445.444-.72.89-.923 1.417-.198.51-.333 1.09-.372 1.942C.008 5.555 0 5.827 0 8s.01 2.445.048 3.298c.04.852.174 1.433.372 1.942.204.526.478.973.923 1.417.444.445.89.72 1.417.923.51.198 1.09.333 1.942.372.853.04 1.125.048 3.298.048s2.445-.01 3.298-.048c.852-.04 1.433-.174 1.942-.372a3.908 3.908 0 0 0 1.417-.923c.445-.444.72-.89.923-1.417.198-.51.333-1.09.372-1.942.04-.853.048-1.125.048-3.298s-.01-2.445-.048-3.298c-.04-.852-.174-1.433-.372-1.942a3.908 3.908 0 0 0-.923-1.417A3.886 3.886 0 0 0 13.24.42c-.51-.198-1.09-.333-1.942-.372C10.445.008 10.173 0 8 0zm0 1.44c2.136 0 2.39.01 3.233.048.78.036 1.203.166 1.485.276.374.145.64.318.92.598.28.28.453.546.598.92.11.282.24.705.276 1.485.038.844.047 1.097.047 3.233s-.01 2.39-.05 3.233c-.04.78-.17 1.203-.28 1.485-.15.374-.32.64-.6.92-.28.28-.55.453-.92.598-.28.11-.71.24-1.49.276-.85.038-1.1.047-3.24.047s-2.39-.01-3.24-.05c-.78-.04-1.21-.17-1.49-.28a2.49 2.49 0 0 1-.92-.6c-.28-.28-.46-.55-.6-.92-.11-.28-.24-.71-.28-1.49-.03-.84-.04-1.1-.04-3.23s.01-2.39.04-3.24c.04-.78.17-1.21.28-1.49.14-.38.32-.64.6-.92.28-.28.54-.46.92-.6.28-.11.7-.24 1.48-.28.85-.03 1.1-.04 3.24-.04zm0 2.452a4.108 4.108 0 1 0 0 8.215 4.108 4.108 0 0 0 0-8.215zm0 6.775a2.667 2.667 0 1 1 0-5.334 2.667 2.667 0 0 1 0 5.334zm5.23-6.937a.96.96 0 1 1-1.92 0 .96.96 0 0 1 1.92 0z"/></symbol><symbol viewBox="0 0 41.143208 41.143204" id="icon-logo"><title>logo</title><path d="M20.702.044l-7.4 20.264-.028.078c1.142-.287 2.168-.776 4.85.087 1.79.594 2.902.298 4.095-.002 1.841-.707 3.499-.593 5.004.007l-.034-.014c1.246.27 2.328.625 4.147.01.933-.354 1.82-.505 2.666-.492h.01a6.928 6.928 0 0 1 2.385.485c1.167.27 2.643.516 4.202.09v.008h.54a.222.222 0 0 0-.063-.129L20.723.063a.1.1 0 0 0-.021-.019zm-5.188 20.373h.005c.547.008 1.227.115 2.117.377h.002c-.891-.263-1.572-.371-2.12-.377zm6.499.556zm5.672.055h.003a11.308 11.308 0 0 0-.003 0zm-9.043.05h.002c.11.026.222.054.328.073-.107-.02-.219-.047-.33-.073z" fill="#fff" fill-rule="evenodd" stroke-width=".76" stroke-linecap="round" stroke-linejoin="round" paint-order="stroke fill markers"/><path d="M20.575 0a.22.22 0 0 0-.16.065L.064 20.44a.221.221 0 0 0-.063.128h.558l.022.014c.096.035.185.064.273.09 1.25.14 2.47-.145 3.579-.34 2.173-.454 3.19-.212 4.467.14l.015.004.016.009c1.123.492 2.485.392 3.985-.014h.013l.013-.004c.115-.022.225-.051.336-.079l.029-.077 7.4-20.265a.221.221 0 0 0-.13-.046z" style="line-height:normal;font-variant-ligatures:normal;font-variant-position:normal;font-variant-caps:normal;font-variant-numeric:normal;font-variant-alternates:normal;font-feature-settings:normal;text-indent:0;text-align:start;text-decoration-line:none;text-decoration-style:solid;text-decoration-color:#000;text-transform:none;text-orientation:mixed;shape-padding:0;isolation:auto;mix-blend-mode:normal" color="#000" font-weight="400" font-family="sans-serif" white-space="normal" overflow="visible" fill="#e1e1e1" stroke-width=".253"/><path d="M20.59 41.143a.22.22 0 0 1-.159-.065L.078 20.704a.22.22 0 0 1-.062-.129h.557v.007c.105.04.2.07.296.098 1.249.14 2.47-.145 3.578-.34 2.174-.455 3.191-.212 4.467.14l.015.004.016.009c1.123.491 2.486.391 3.985-.014h.014l.012-.004.216-.05.15.408 7.399 20.264a.22.22 0 0 1-.13.046z" style="line-height:normal;font-variant-ligatures:normal;font-variant-position:normal;font-variant-caps:normal;font-variant-numeric:normal;font-variant-alternates:normal;font-feature-settings:normal;text-indent:0;text-align:start;text-decoration-line:none;text-decoration-style:solid;text-decoration-color:#000;text-transform:none;text-orientation:mixed;shape-padding:0;isolation:auto;mix-blend-mode:normal" color="#000" font-weight="400" font-family="sans-serif" white-space="normal" overflow="visible" fill="#4b4b4b" stroke-width=".253"/><path d="M34.005 19.985c-.846-.014-1.732.139-2.665.493-1.82.615-2.902.26-4.148-.01l.034.014c-1.505-.6-3.164-.714-5.004-.007-1.194.3-2.306.595-4.095.001-1.475-.58-3.28-.716-4.955-.052l.15.408c-.2 4.787 2.664 11.556 7.393 20.248a.757.757 0 0 0 .012-.01L41.08 20.695a.22.22 0 0 0 .063-.13h-.54v-.008c-1.559.427-3.036.18-4.203-.09a6.909 6.909 0 0 0-2.385-.484z" fill="#646464" fill-rule="evenodd" stroke-width=".76" stroke-linecap="round" stroke-linejoin="round" paint-order="stroke fill markers"/><path style="line-height:normal;font-variant-ligatures:normal;font-variant-position:normal;font-variant-caps:normal;font-variant-numeric:normal;font-variant-alternates:normal;font-feature-settings:normal;text-indent:0;text-align:start;text-decoration-line:none;text-decoration-style:solid;text-decoration-color:#000;text-transform:none;text-orientation:mixed;shape-padding:0;isolation:auto;mix-blend-mode:normal" d="M20.59 41.143a.22.22 0 0 1-.159-.065L.078 20.704a.22.22 0 0 1-.062-.129h.557v.007c.105.04.2.07.296.098 1.249.14 2.47-.145 3.578-.34 2.174-.455 3.191-.212 4.467.14l.015.004.016.009c1.123.491 2.486.391 3.985-.014h.014l.012-.004.216-.05.15.408 7.399 20.264a.22.22 0 0 1-.13.046z" color="#000" font-weight="400" font-family="sans-serif" white-space="normal" overflow="visible" fill="#4b4b4b" stroke-width=".253"/></symbol><symbol viewBox="0 0 16 16" id="icon-patreon"><title>patreon</title><path d="M0 7.78C0 4.053 3.027.56 7.018.06c2.86-.333 5.023.765 6.52 2.196 1.396 1.33 2.228 3.028 2.428 5.025.166 2-.266 3.73-1.43 5.36-1.164 1.6-3.46 3.36-6.32 3.36H4.324V8.32c.034-1.697.6-3.162 2.66-3.86 1.797-.533 3.893.465 4.525 2.362.66 2.03-.3 3.394-1.43 4.226-1.14.832-2.9.832-4.06.033v2.63c.76.37 1.73.47 2.43.43 2.52-.36 4.49-1.79 5.32-3.96.86-2.29.26-4.96-1.53-6.62-2.16-1.77-4.53-2.2-7.05-.97-1.77.9-3 2.73-3.3 4.73V16H.03L0 7.78z" fill-rule="nonzero"/></symbol><symbol viewBox="0 0 16 16" id="icon-twitter"><title>twitter</title><path d="M16 3.038a6.62 6.62 0 0 1-1.885.517 3.299 3.299 0 0 0 1.443-1.816c-.634.37-1.337.64-2.085.79a3.282 3.282 0 0 0-5.593 2.99 9.307 9.307 0 0 1-6.766-3.42A3.222 3.222 0 0 0 .67 3.75c0 1.14.58 2.143 1.46 2.732a3.278 3.278 0 0 1-1.487-.41v.04c0 1.59 1.13 2.918 2.633 3.22a3.336 3.336 0 0 1-1.475.056 3.29 3.29 0 0 0 3.07 2.28 6.578 6.578 0 0 1-4.85 1.359 9.332 9.332 0 0 0 5.04 1.474c6.04 0 9.34-5 9.34-9.33 0-.14 0-.28-.01-.42a6.63 6.63 0 0 0 1.64-1.7z" fill-rule="nonzero"/></symbol><symbol viewBox="0 0 16 16" id="icon-wechat"><title>wechat</title><path d="M15.693 8.5c-.406-.92-1.172-1.65-2.06-2.1-1.57-.795-3.522-.79-5.086.02-1.088.558-1.995 1.558-2.253 2.775-.213.896-.022 1.86.453 2.64C7.454 13.01 8.732 13.76 10.06 14c.963.196 1.958.08 2.893-.19.56.218 1.06.57 1.605.83-.14-.47-.29-.937-.45-1.4.61-.434 1.163-.974 1.496-1.652a3.585 3.585 0 0 0 .09-3.087zM9.078 2.19c-1.663-.936-3.735-1.077-5.524-.43-1.175.423-2.24 1.21-2.897 2.28-.596.967-.82 2.172-.532 3.278.288 1.227 1.14 2.255 2.174 2.942-.2.566-.39 1.133-.57 1.703.65-.34 1.3-.695 1.95-1.04.78.25 1.61.372 2.44.345a4.11 4.11 0 0 1-.17-1.968c.15-.914.65-1.75 1.33-2.37 1.15-1.076 2.78-1.53 4.33-1.42-.29-1.423-1.29-2.626-2.55-3.32zm1.154 6.66c-.138.434-.77.565-1.076.234-.337-.306-.206-.946.236-1.082.49-.207 1.055.358.84.848zm3.197.06c-.17.392-.76.482-1.05.18-.14-.127-.18-.318-.23-.487.07-.305.28-.622.62-.636.47-.065.89.515.65.943zM8.66 4.608c.005.64-.85 1.04-1.33.606-.498-.357-.357-1.225.228-1.405.523-.21 1.142.23 1.1.79zm-4.04.162c-.114.557-.86.826-1.297.452-.506-.356-.364-1.24.23-1.42.582-.224 1.243.367 1.068.968z"/></symbol><symbol viewBox="0 0 16 16" id="icon-youtube"><title>youtube</title><path d="M0 7.345c0-1.294.16-2.59.16-2.59s.156-1.1.636-1.587c.608-.637 1.408-.617 1.764-.684C3.84 2.36 8 2.324 8 2.324s3.362.004 5.6.166c.314.038.996.04 1.604.678.48.486.636 1.588.636 1.588S16 6.05 16 7.346v1.258c0 1.296-.16 2.59-.16 2.59s-.156 1.102-.636 1.588c-.608.638-1.29.64-1.604.678-2.238.162-5.6.166-5.6.166s-4.16-.037-5.44-.16c-.356-.067-1.156-.047-1.764-.684-.48-.487-.636-1.587-.636-1.587S0 9.9 0 8.605v-1.26zm6.348 2.73V5.58l4.323 2.255-4.32 2.24z"/></symbol></svg>