<?xml version="1.0" standalone="no"?>
<!DOCTYPE svg PUBLIC "-//W3C//DTD SVG 20010904//EN"
 "http://www.w3.org/TR/2001/REC-SVG-20010904/DTD/svg10.dtd">
<svg version="1.0" xmlns="http://www.w3.org/2000/svg"
 width="310.000000pt" height="310.000000pt" viewBox="0 0 310.000000 310.000000"
 preserveAspectRatio="xMidYMid meet">
<metadata>
Created by potrace 1.11, written by Peter Selinger 2001-2013
</metadata>
<g transform="translate(0.000000,310.000000) scale(0.100000,-0.100000)"
fill="#000000" stroke="none">
<path d="M772 2327 c-424 -424 -772 -777 -772 -782 0 -16 1534 -1545 1550
-1545 12 0 1189 1171 1480 1473 l75 78 -120 -7 c-124 -7 -191 1 -290 34 -78
26 -220 21 -324 -12 -112 -35 -197 -35 -327 1 -132 35 -240 36 -344 2 -103
-33 -264 -34 -359 -1 -89 31 -180 37 -266 19 -38 -8 -71 -14 -71 -13 -1 0 108
300 242 666 318 870 315 860 306 860 -4 0 -355 -348 -780 -773z"/>
</g>
</svg>
