<?xml version="1.0" encoding="UTF-8" standalone="no"?>
<!-- Created with Inkscape (http://www.inkscape.org/) -->

<svg
 xmlns:dc="http://purl.org/dc/elements/1.1/"
 xmlns:cc="http://creativecommons.org/ns#"
 xmlns:rdf="http://www.w3.org/1999/02/22-rdf-syntax-ns#"
 xmlns:svg="http://www.w3.org/2000/svg"
 xmlns="http://www.w3.org/2000/svg"
 xmlns:sodipodi="http://sodipodi.sourceforge.net/DTD/sodipodi-0.dtd"
 xmlns:inkscape="http://www.inkscape.org/namespaces/inkscape"
 width="41.143208mm"
 height="41.143204mm"
 viewBox="0 0 41.143208 41.143204"
 version="1.1"
 id="svg6629"
 inkscape:version="0.92.1 r"
 sodipodi:docname="logo.svg">
<defs
 id="defs6623" />
<sodipodi:namedview
 id="base"
 pagecolor="#ffffff"
 bordercolor="#666666"
 borderopacity="1.0"
 inkscape:pageopacity="0.0"
 inkscape:pageshadow="2"
 inkscape:zoom="1.1361328"
 inkscape:cx="106.49377"
 inkscape:cy="53.786242"
 inkscape:document-units="mm"
 inkscape:current-layer="layer1"
 showgrid="false"
 fit-margin-top="0"
 fit-margin-left="0"
 fit-margin-right="0"
 fit-margin-bottom="0"
 inkscape:window-width="1920"
 inkscape:window-height="1029"
 inkscape:window-x="0"
 inkscape:window-y="27"
 inkscape:window-maximized="1" />
<metadata
 id="metadata6626">
<rdf:RDF>
<cc:Work
 rdf:about="">
<dc:format>image/svg+xml</dc:format>
<dc:type
 rdf:resource="http://purl.org/dc/dcmitype/StillImage" />
<dc:title></dc:title>
</cc:Work>
</rdf:RDF>
</metadata>
<g
 inkscape:label="Layer 1"
 inkscape:groupmode="layer"
 id="layer1"
 transform="translate(-47.895303,-127.38479)">
<g
 id="g6122"
 transform="matrix(1.7391073,0,0,1.7410428,-31.264456,-293.5798)"
 style="display:inline;opacity:1;enable-background:new">
<path
 id="path6112"
 d="m 57.421114,241.8143 -4.254659,11.63881 -0.01632,0.0445 c 0.656802,-0.16482 1.246366,-0.44575 2.788918,0.05 1.028907,0.34136 1.668509,0.17124 2.354788,-9.5e-4 1.058343,-0.40616 2.011606,-0.34071 2.877032,0.004 l -0.01979,-0.008 c 0.716439,0.15501 1.339029,0.35903 2.384986,0.006 0.536491,-0.20356 1.046636,-0.29044 1.532567,-0.28315 h 0.0059 c 0.479957,0.009 0.936389,0.11033 1.371689,0.27869 0.670615,0.15478 1.519565,0.29673 2.41617,0.0514 v 0.005 h 0.310375 c -0.0035,-0.0279 -0.01625,-0.0538 -0.03613,-0.0738 L 57.433488,241.8247 c -0.0039,-0.004 -0.008,-0.008 -0.01237,-0.0104 z m -2.982963,11.70119 0.0026,4.9e-4 c 0.314566,0.004 0.705538,0.0655 1.217738,0.21633 2.54e-4,-9e-5 7.61e-4,9e-5 0.0011,0 -0.512727,-0.15102 -0.903944,-0.21332 -1.218727,-0.21681 z m 3.736871,0.31928 c -0.266794,0.0653 -0.542355,0.12626 -0.84697,0.14999 0.304437,-0.0236 0.579826,-0.0843 0.846476,-0.14949 1.27e-4,-1.9e-4 2.54e-4,-3.1e-4 5.07e-4,-5.1e-4 z m 3.261658,0.0317 c 5.07e-4,1.1e-4 0.0011,3.8e-4 0.0015,5e-4 0.151893,0.0331 0.304167,0.0653 0.466305,0.0886 -0.162647,-0.0234 -0.315446,-0.0557 -0.467791,-0.0891 z m -5.200137,0.0287 c 2.54e-4,9e-5 7.61e-4,4.2e-4 0.0011,5.1e-4 0.06377,0.0148 0.127835,0.0305 0.189098,0.0416 -0.06158,-0.0112 -0.125979,-0.0271 -0.190087,-0.042 z"
 style="opacity:1;fill:#ffffff;fill-opacity:1;fill-rule:evenodd;stroke:none;stroke-width:0.76034391;stroke-linecap:round;stroke-linejoin:round;stroke-miterlimit:4;stroke-dasharray:none;stroke-dashoffset:0;stroke-opacity:1;paint-order:stroke fill markers"
 inkscape:connector-curvature="0" />
<path
 id="path6114"
 d="m 57.348338,241.78878 c -0.0343,-5e-4 -0.06734,0.0129 -0.09158,0.0371 l -11.703161,11.70271 c -0.01989,0.0199 -0.03261,0.0459 -0.03613,0.0738 h 0.320772 l 0.01287,0.008 c 0.05479,0.0201 0.106438,0.037 0.15692,0.052 0.718408,0.08 1.420167,-0.0834 2.057779,-0.19503 1.249656,-0.26155 1.834712,-0.12247 2.568637,0.0802 l 0.0089,0.002 0.0089,0.005 c 0.645917,0.2827 1.428988,0.22539 2.291428,-0.008 h 0.0075 l 0.0074,-0.002 c 0.06615,-0.013 0.129631,-0.0295 0.193551,-0.0455 l 0.01632,-0.0445 4.254657,-11.6393 c -0.02147,-0.0165 -0.04766,-0.0257 -0.07475,-0.0263 z"
 style="color:#000000;font-style:normal;font-variant:normal;font-weight:normal;font-stretch:normal;font-size:medium;line-height:normal;font-family:sans-serif;font-variant-ligatures:normal;font-variant-position:normal;font-variant-caps:normal;font-variant-numeric:normal;font-variant-alternates:normal;font-feature-settings:normal;text-indent:0;text-align:start;text-decoration:none;text-decoration-line:none;text-decoration-style:solid;text-decoration-color:#000000;letter-spacing:normal;word-spacing:normal;text-transform:none;writing-mode:lr-tb;direction:ltr;text-orientation:mixed;dominant-baseline:auto;baseline-shift:baseline;text-anchor:start;white-space:normal;shape-padding:0;clip-rule:nonzero;display:inline;overflow:visible;visibility:visible;opacity:1;isolation:auto;mix-blend-mode:normal;color-interpolation:sRGB;color-interpolation-filters:linearRGB;solid-color:#000000;solid-opacity:1;vector-effect:none;fill:#e1e1e1;fill-opacity:1;fill-rule:nonzero;stroke:none;stroke-width:0.25319809;stroke-linecap:butt;stroke-linejoin:miter;stroke-miterlimit:4;stroke-dasharray:none;stroke-dashoffset:0;stroke-opacity:1;color-rendering:auto;image-rendering:auto;shape-rendering:auto;text-rendering:auto;enable-background:accumulate"
 inkscape:connector-curvature="0" />
<path
 inkscape:connector-curvature="0"
 id="path6116"
 d="m 57.357255,265.42011 a 0.1267171,0.1267171 0 0 1 -0.09158,-0.0372 L 45.562521,253.68029 a 0.1267171,0.1267171 0 0 1 -0.03613,-0.0738 h 0.320772 v 0.004 c 0.06003,0.0224 0.115151,0.0401 0.169789,0.0564 0.718407,0.08 1.420168,-0.0834 2.05778,-0.19504 1.249653,-0.26156 1.83471,-0.12247 2.568637,0.0802 l 0.0084,0.002 0.0089,0.005 c 0.64592,0.28247 1.429485,0.2249 2.291923,-0.008 h 0.0075 l 0.0069,-0.002 c 0.04242,-0.009 0.0829,-0.0195 0.12425,-0.0292 l 0.08614,0.23463 4.25466,11.6393 a 0.1267171,0.1267171 0 0 1 -0.07475,0.0263 z"
 style="color:#000000;font-style:normal;font-variant:normal;font-weight:normal;font-stretch:normal;font-size:medium;line-height:normal;font-family:sans-serif;font-variant-ligatures:normal;font-variant-position:normal;font-variant-caps:normal;font-variant-numeric:normal;font-variant-alternates:normal;font-feature-settings:normal;text-indent:0;text-align:start;text-decoration:none;text-decoration-line:none;text-decoration-style:solid;text-decoration-color:#000000;letter-spacing:normal;word-spacing:normal;text-transform:none;writing-mode:lr-tb;direction:ltr;text-orientation:mixed;dominant-baseline:auto;baseline-shift:baseline;text-anchor:start;white-space:normal;shape-padding:0;clip-rule:nonzero;display:inline;overflow:visible;visibility:visible;opacity:1;isolation:auto;mix-blend-mode:normal;color-interpolation:sRGB;color-interpolation-filters:linearRGB;solid-color:#000000;solid-opacity:1;vector-effect:none;fill:#4b4b4b;fill-opacity:1;fill-rule:nonzero;stroke:none;stroke-width:0.25319809;stroke-linecap:butt;stroke-linejoin:miter;stroke-miterlimit:4;stroke-dasharray:none;stroke-dashoffset:0;stroke-opacity:1;color-rendering:auto;image-rendering:auto;shape-rendering:auto;text-rendering:auto;enable-background:accumulate" />
<path
 id="path6118"
 style="opacity:1;fill:#646464;fill-opacity:1;fill-rule:evenodd;stroke:none;stroke-width:0.76034391;stroke-linecap:round;stroke-linejoin:round;stroke-miterlimit:4;stroke-dasharray:none;stroke-dashoffset:0;stroke-opacity:1;paint-order:stroke fill markers"
 d="m 65.070324,253.2676 c -0.485932,-0.008 -0.9959,0.0796 -1.532388,0.28314 -1.045973,0.35328 -1.668491,0.14879 -2.384932,-0.006 l 0.01944,0.008 c -0.865424,-0.34453 -1.818972,-0.40989 -2.877316,-0.004 -0.686276,0.17221 -1.325684,0.34215 -2.354592,8e-4 -0.848254,-0.33297 -1.886188,-0.41114 -2.849287,-0.0298 l 0.08634,0.23413 c -0.115334,2.74989 1.531928,6.63727 4.251024,11.62984 0.0024,-0.002 0.0047,-0.004 0.007,-0.006 l 11.702953,-11.70206 c 0.02007,-0.0198 0.03293,-0.0459 0.03656,-0.0739 H 68.86475 v -0.005 c -0.896624,0.24528 -1.746208,0.10345 -2.416821,-0.0513 -0.435301,-0.16837 -0.891419,-0.26986 -1.371373,-0.27848 z"
 inkscape:connector-curvature="0"
 sodipodi:nodetypes="ccccccccccccccccc" />
<path
 style="color:#000000;font-style:normal;font-variant:normal;font-weight:normal;font-stretch:normal;font-size:medium;line-height:normal;font-family:sans-serif;font-variant-ligatures:normal;font-variant-position:normal;font-variant-caps:normal;font-variant-numeric:normal;font-variant-alternates:normal;font-feature-settings:normal;text-indent:0;text-align:start;text-decoration:none;text-decoration-line:none;text-decoration-style:solid;text-decoration-color:#000000;letter-spacing:normal;word-spacing:normal;text-transform:none;writing-mode:lr-tb;direction:ltr;text-orientation:mixed;dominant-baseline:auto;baseline-shift:baseline;text-anchor:start;white-space:normal;shape-padding:0;clip-rule:nonzero;display:inline;overflow:visible;visibility:visible;opacity:1;isolation:auto;mix-blend-mode:normal;color-interpolation:sRGB;color-interpolation-filters:linearRGB;solid-color:#000000;solid-opacity:1;vector-effect:none;fill:#4b4b4b;fill-opacity:1;fill-rule:nonzero;stroke:none;stroke-width:0.25319809;stroke-linecap:butt;stroke-linejoin:miter;stroke-miterlimit:4;stroke-dasharray:none;stroke-dashoffset:0;stroke-opacity:1;color-rendering:auto;image-rendering:auto;shape-rendering:auto;text-rendering:auto;enable-background:accumulate"
 d="m 57.357255,265.42011 a 0.1267171,0.1267171 0 0 1 -0.09158,-0.0372 L 45.562521,253.68029 a 0.1267171,0.1267171 0 0 1 -0.03613,-0.0738 h 0.320772 v 0.004 c 0.06003,0.0224 0.115151,0.0401 0.169789,0.0564 0.718407,0.08 1.420168,-0.0834 2.05778,-0.19504 1.249653,-0.26156 1.83471,-0.12247 2.568637,0.0802 l 0.0084,0.002 0.0089,0.005 c 0.64592,0.28247 1.429485,0.2249 2.291923,-0.008 h 0.0075 l 0.0069,-0.002 c 0.04242,-0.009 0.0829,-0.0195 0.12425,-0.0292 l 0.08614,0.23463 4.25466,11.6393 a 0.1267171,0.1267171 0 0 1 -0.07475,0.0263 z"
 id="path6120"
 inkscape:connector-curvature="0" />
</g>
</g>
</svg>
